<svg xmlns="http://www.w3.org/2000/svg" version="1.0" width="200" height="200" viewBox="0 0 600 600" preserveAspectRatio="xMidYMid meet"><default:g xmlns:default="http://www.w3.org/2000/svg" transform="translate(0.000000,600.000000) scale(0.100000,-0.100000)" fill="#4ECB71" stroke="none"><default:path d="M3070 5486 c-36 -12 -107 -44 -159 -70 -144 -73 -250 -118 -439 -185 -345 -123 -424 -167 -767 -425 -231 -174 -390 -267 -544 -319 l-73 -25 43 -25 c24 -14 68 -32 97 -42 29 -9 52 -18 50 -20 -2 -2 -32 -15 -68 -30 -36 -15 -80 -34 -98 -42 l-34 -14 24 -18 c13 -10 40 -27 61 -37 l37 -20 -26 -34 c-37 -51 -90 -159 -118 -242 -26 -77 -45 -154 -96 -383 -38 -172 -59 -247 -120 -440 -47 -148 -78 -290 -66 -302 3 -4 19 5 34 18 15 14 38 33 51 44 24 20 24 20 16 0 -30 -74 -101 -362 -92 -372 2 -1 18 18 35 45 36 54 68 92 76 92 3 0 3 -13 0 -29 -17 -82 41 -280 140 -483 100 -204 338 -656 332 -628 -21 91 -42 422 -26 402 4 -4 16 -31 28 -60 29 -72 120 -210 206 -311 142 -168 321 -309 741 -586 149 -98 287 -191 308 -207 20 -16 37 -26 37 -21 0 5 -22 45 -49 89 -100 160 -143 235 -139 239 3 3 50 -38 105 -90 56 -52 104 -95 107 -95 4 0 -5 23 -20 51 -14 28 -19 48 -12 43 116 -69 246 -164 292 -216 52 -57 121 -174 140 -238 l7 -25 9 26 c30 101 152 254 243 307 20 12 37 19 37 17 0 -2 -9 -19 -19 -37 -10 -18 -22 -43 -26 -56 -6 -20 1 -17 57 22 35 24 118 71 185 105 119 59 122 60 111 33 -26 -62 -105 -186 -151 -237 -27 -30 -45 -55 -42 -55 4 0 37 22 74 48 36 27 161 114 276 195 449 313 662 502 845 748 101 136 157 249 190 384 l17 70 8 -92 c8 -105 -7 -268 -36 -382 -11 -41 -17 -76 -16 -78 6 -5 153 306 232 492 97 226 126 321 133 423 2 45 7 82 10 82 3 0 25 -21 49 -47 39 -45 42 -46 33 -18 -12 39 -34 231 -65 583 -14 155 -32 326 -40 380 -38 257 -125 473 -260 653 l-35 47 27 6 c47 11 143 48 143 55 0 4 -17 15 -37 25 -43 20 -243 148 -243 156 0 3 19 5 43 6 23 0 59 4 81 8 l39 7 -119 60 c-148 73 -231 136 -458 341 -270 247 -395 334 -569 395 -57 20 -98 27 -194 30 -87 4 -123 2 -123 -6 0 -6 6 -11 13 -11 8 0 7 -4 -3 -10 -19 -12 -33 -13 -26 -1 3 4 -5 6 -18 4 -13 -3 -27 0 -30 6 -4 6 0 11 8 11 9 0 16 4 16 9 0 6 8 10 18 10 9 0 60 8 114 17 81 15 109 16 185 7 48 -6 90 -9 92 -7 6 5 -43 23 -129 47 -93 25 -331 31 -393 8 -31 -10 -41 -11 -50 -1 -8 8 -8 11 -1 7 6 -4 42 7 81 23 79 33 235 63 300 58 65 -5 52 8 -26 26 -159 36 -342 13 -496 -64 -80 -39 -176 -112 -164 -124 4 -4 15 1 25 11 9 10 19 16 20 13 2 -3 11 2 21 10 10 9 22 16 27 17 5 1 13 7 17 15 5 7 9 8 9 3 0 -13 -29 -39 -54 -48 -9 -4 -15 -11 -12 -16 4 -5 -7 -21 -24 -34 -16 -14 -30 -30 -30 -36 0 -5 -5 -13 -12 -17 -7 -5 -8 -3 -3 6 5 9 4 11 -3 6 -7 -4 -12 -13 -12 -19 -1 -12 -45 -67 -54 -67 -9 0 8 57 35 113 7 16 13 40 14 54 0 15 6 28 13 30 7 3 10 -1 6 -11 -4 -12 -2 -15 9 -11 16 7 52 111 63 183 5 33 15 50 43 72 19 17 41 30 48 30 6 0 15 5 18 10 10 15 -14 12 -85 -14z m-48 -53 c-6 -2 -10 -9 -6 -14 3 -5 1 -9 -5 -9 -13 0 -22 15 -14 24 3 3 13 6 22 5 11 0 12 -2 3 -6z m-6 -39 c18 -15 18 -15 -2 -5 -19 9 -31 0 -104 -74 -87 -89 -89 -107 -5 -50 27 19 51 32 53 30 2 -1 -10 -41 -27 -88 -49 -138 -78 -335 -52 -351 5 -3 11 14 13 39 12 102 112 242 246 342 44 34 78 64 74 68 -3 3 2 3 11 -1 16 -6 15 -10 -12 -38 -31 -32 -101 -143 -101 -159 0 -5 6 -5 13 1 34 29 329 124 342 110 2 -2 -27 -28 -63 -58 -73 -61 -94 -92 -45 -66 90 46 275 45 426 -4 151 -49 271 -128 495 -330 68 -60 162 -143 209 -182 76 -64 87 -70 98 -55 11 15 14 14 33 -8 12 -14 18 -25 13 -25 -6 0 -13 5 -16 10 -3 6 -14 10 -23 10 -22 -1 11 -27 84 -70 59 -35 68 -37 60 -12 -5 14 -3 14 9 -2 8 -11 11 -24 7 -28 -11 -11 -133 15 -217 47 -126 47 -77 7 79 -65 49 -22 109 -58 135 -79 25 -21 78 -59 118 -85 62 -42 74 -46 93 -36 18 10 21 9 17 -2 -2 -7 -10 -12 -16 -10 -7 1 -10 -2 -6 -8 6 -10 -16 -12 -136 -14 l-47 0 45 -51 c99 -109 190 -268 256 -445 51 -138 64 -209 112 -635 36 -315 55 -445 71 -484 18 -43 18 -43 -11 -29 -21 10 -28 8 -40 -8 -14 -18 -14 -18 -15 3 0 12 3 29 6 38 6 14 10 13 32 -7 l25 -23 -17 33 c-20 38 -84 112 -97 112 -5 0 -2 -15 8 -32 15 -27 18 -55 17 -143 -2 -118 -20 -192 -83 -344 -29 -69 -30 -76 -15 -92 9 -10 13 -23 9 -29 -9 -15 -28 -1 -21 16 3 8 2 14 -3 14 -5 0 -18 -23 -30 -51 -22 -51 -22 -87 0 -73 8 4 9 3 5 -5 -6 -9 -11 -9 -21 -1 -10 8 -15 3 -24 -21 -14 -40 -14 -39 4 -39 13 0 12 -5 -2 -35 -9 -19 -20 -32 -24 -30 -4 3 -5 -3 -2 -13 2 -10 -3 -24 -12 -32 -14 -12 -15 -8 -11 36 2 27 10 53 18 57 10 7 12 35 6 130 -3 67 -2 151 3 187 10 76 12 156 3 147 -10 -10 -16 -56 -15 -127 l0 -65 -24 59 c-25 58 -65 120 -95 143 -25 21 -29 15 -12 -20 27 -51 23 -221 -7 -317 -43 -139 -137 -298 -259 -438 -30 -35 -52 -66 -49 -69 4 -3 0 -15 -8 -27 -8 -11 -15 -30 -15 -41 0 -28 -44 -69 -64 -62 -18 7 -22 27 -6 27 13 0 38 26 68 68 34 47 20 39 -36 -20 -50 -52 -51 -52 -71 -34 -27 25 -27 28 10 67 27 29 32 31 46 17 14 -15 13 -18 -10 -33 -14 -9 -28 -24 -31 -33 -3 -9 22 12 56 48 146 151 271 353 322 520 30 96 53 270 42 314 -11 46 -17 24 -20 -76 -2 -51 -6 -104 -9 -118 -4 -14 -10 -40 -13 -59 -4 -19 -16 -57 -26 -85 -11 -28 -22 -61 -25 -74 -3 -12 -10 -22 -15 -22 -5 0 -6 -4 -3 -10 3 -5 1 -10 -5 -10 -6 0 -8 -4 -5 -10 3 -5 1 -10 -4 -10 -6 0 -11 -8 -11 -17 0 -16 -2 -16 -11 -3 -8 12 -9 11 -4 -6 6 -25 -49 -100 -72 -98 -12 2 -12 0 1 -15 13 -14 12 -19 -4 -39 -10 -12 -25 -20 -33 -16 -18 7 -32 -12 -16 -22 8 -5 9 -3 4 6 -5 9 -4 11 4 6 16 -10 -5 -37 -24 -30 -10 4 -12 -1 -8 -17 4 -13 0 -26 -8 -33 -8 -6 -23 -22 -32 -36 l-17 -24 -1 24 c-1 17 -3 19 -6 8 -4 -16 -23 -26 -23 -13 0 2 23 34 50 71 28 37 50 71 50 75 0 5 -9 9 -20 9 -22 0 -55 -54 -44 -72 4 -6 3 -8 -4 -4 -10 6 -52 -42 -52 -61 -1 -9 -57 -73 -64 -73 -3 0 -7 8 -9 18 -2 9 -3 5 -1 -9 2 -17 -4 -33 -17 -44 -10 -10 -17 -20 -14 -23 3 -3 14 3 25 13 26 23 34 15 19 -18 -7 -17 -17 -24 -28 -20 -13 4 -13 3 -2 -5 11 -8 10 -12 -8 -21 -11 -7 -21 -17 -21 -23 0 -7 20 8 45 32 24 24 47 41 50 38 6 -6 -61 -72 -139 -139 -22 -19 -61 -54 -88 -78 -39 -36 -49 -41 -54 -27 -4 11 3 25 21 40 30 26 19 45 -14 24 -25 -15 -30 -36 -17 -65 17 -40 86 -25 86 18 0 9 7 22 15 29 13 10 15 9 15 -12 0 -18 -13 -34 -45 -57 -62 -44 -97 -31 -116 42 l-8 32 3 -33 c1 -17 -1 -32 -6 -32 -4 0 -8 6 -9 13 0 9 -2 9 -6 0 -2 -7 -17 -13 -33 -13 -29 0 -60 -22 -60 -43 1 -7 9 -2 19 11 15 17 30 22 64 22 54 0 69 -21 37 -55 -11 -12 -17 -25 -13 -30 5 -4 2 -5 -5 -1 -7 4 -15 1 -18 -8 -11 -28 -33 -18 -32 14 1 16 5 27 10 24 4 -3 8 0 8 7 0 8 3 9 14 0 10 -8 16 -8 24 2 9 10 4 13 -23 15 -34 3 -49 -10 -50 -38 0 -8 -4 -21 -9 -29 -6 -9 -5 -12 1 -8 15 10 34 -16 23 -32 -6 -11 -11 -10 -25 6 -14 17 -21 18 -41 9 -25 -11 -32 -40 -14 -51 8 -5 7 -11 -1 -21 -9 -11 -15 -11 -25 -3 -8 6 -11 15 -8 20 14 23 -19 5 -64 -36 -60 -54 -78 -43 -30 17 18 23 32 42 30 43 -8 1 27 81 74 172 67 127 83 197 84 373 0 70 31 -10 54 -139 8 -46 13 -89 11 -95 -2 -6 -6 -31 -10 -55 l-6 -45 21 27 c12 15 25 25 30 22 4 -3 22 3 38 12 29 16 32 17 66 0 20 -9 36 -12 36 -7 0 6 -6 10 -14 10 -8 0 -16 5 -18 12 -6 17 -64 14 -83 -6 -24 -23 -29 -14 -12 21 8 15 27 71 42 124 24 84 33 103 85 164 33 38 64 71 70 73 25 9 -9 -129 -44 -180 -23 -33 -19 -41 9 -21 16 12 23 25 20 38 -3 11 -2 14 1 8 3 -7 10 -13 15 -13 6 0 7 5 3 12 -4 7 -3 8 4 4 20 -12 61 26 62 57 0 41 35 102 75 132 24 19 51 28 92 32 l58 6 38 76 c56 113 94 227 121 364 14 67 36 148 50 179 24 55 33 95 56 258 28 196 32 256 27 430 -6 199 -22 291 -72 430 -15 41 -28 83 -28 92 -1 9 -3 15 -6 13 -2 -3 -20 22 -38 56 -29 52 -32 63 -21 77 11 15 11 15 -3 4 -15 -11 -20 -8 -38 21 -24 39 -27 51 -8 41 6 -4 -1 6 -18 22 -47 46 -74 82 -68 88 4 3 2 6 -4 6 -15 0 -73 55 -73 70 0 7 -3 11 -6 8 -3 -4 -13 1 -23 10 -9 10 -29 26 -45 37 -15 11 -41 32 -58 48 -18 15 -36 27 -40 27 -5 0 -6 5 -2 12 4 7 3 8 -4 4 -7 -4 -22 4 -35 16 -13 13 -28 23 -34 21 -11 -4 -11 26 1 45 4 6 2 12 -3 12 -6 0 -11 5 -11 11 0 5 4 7 10 4 5 -3 0 10 -13 29 -25 39 -60 56 -101 49 -44 -9 -37 -18 10 -14 57 4 84 -22 84 -81 0 -32 -3 -39 -17 -36 -19 4 -19 6 -9 53 l7 30 -18 -25 c-10 -14 -17 -28 -16 -31 1 -3 -9 -4 -22 -1 -31 5 -31 10 -3 39 l21 23 -21 0 c-12 0 -22 -3 -22 -8 0 -4 -10 -13 -21 -20 -26 -17 -51 0 -31 20 7 7 12 17 12 23 0 5 -8 0 -18 -12 -16 -21 -20 -21 -75 -10 -32 7 -56 15 -52 19 4 3 -13 4 -37 1 -28 -3 -38 -1 -30 5 9 6 -4 7 -39 4 -40 -4 -50 -2 -44 8 6 9 3 10 -11 2 -11 -5 -53 -12 -95 -15 -82 -6 -239 -44 -239 -58 0 -5 -7 -5 -17 -2 -11 4 -14 3 -9 -6 5 -8 0 -10 -17 -7 -13 2 -30 0 -38 -6 -11 -8 -10 -9 4 -4 11 3 16 2 12 -4 -3 -6 -12 -10 -19 -10 -7 0 -33 -11 -59 -23 -25 -13 -43 -19 -40 -13 4 6 -4 2 -17 -9 -13 -11 -20 -15 -17 -8 4 7 -6 5 -25 -5 -24 -12 -54 -16 -113 -15 -113 4 -116 4 -102 22 10 12 9 13 -1 7 -7 -4 -20 -2 -30 6 -15 12 -16 11 -3 -4 16 -21 3 -23 -24 -4 -11 7 -24 15 -30 16 -33 8 -55 21 -50 30 4 6 -1 7 -11 3 -12 -4 -15 -3 -10 5 4 7 2 12 -4 12 -6 0 -8 4 -5 10 3 5 0 7 -8 4 -8 -3 -35 9 -60 25 -25 17 -52 31 -62 31 -10 0 -13 5 -9 12 4 7 3 8 -4 4 -6 -4 -25 0 -42 9 -105 54 -371 80 -515 51 -97 -20 -134 -32 -203 -63 -45 -20 -56 -22 -70 -11 -15 12 -16 11 -3 -5 21 -27 4 -33 -23 -8 -19 18 -26 20 -32 9 -4 -7 -4 -10 1 -6 9 9 35 -9 35 -24 0 -6 -7 -5 -15 2 -13 11 -14 10 -10 -2 3 -8 -2 -21 -11 -29 -15 -12 -17 -12 -9 0 5 8 -7 4 -26 -9 -19 -14 -36 -23 -39 -21 -3 2 -11 -7 -17 -20 -7 -13 -13 -19 -13 -14 0 6 -5 3 -10 -7 -6 -10 -20 -15 -36 -13 -16 1 -22 -1 -16 -7 11 -11 -14 -48 -33 -48 -5 -1 -19 -12 -30 -26 -11 -14 -61 -57 -112 -95 -90 -69 -233 -209 -233 -229 0 -6 24 6 53 26 64 44 68 48 38 41 -22 -6 -23 -5 -5 12 11 10 23 16 28 13 5 -3 6 1 1 8 -6 10 -4 12 9 7 11 -4 15 -3 10 4 -6 11 35 56 48 51 5 -1 8 3 8 9 0 5 6 7 13 3 6 -4 9 -4 5 1 -9 9 20 34 40 35 7 0 -7 -28 -31 -62 -25 -35 -52 -78 -61 -96 -10 -19 -21 -30 -28 -26 -7 4 -8 3 -4 -5 4 -7 -2 -32 -13 -57 -32 -68 -69 -185 -88 -282 -21 -106 -24 -398 -6 -547 7 -55 16 -143 22 -195 5 -52 18 -122 30 -155 19 -54 21 -82 22 -305 0 -135 4 -276 10 -315 5 -38 11 -79 12 -91 2 -11 7 -25 11 -32 4 -7 2 -12 -6 -13 -10 0 -10 -2 0 -6 6 -2 12 -9 12 -15 0 -6 -6 -6 -15 2 -8 7 -12 16 -9 21 3 5 0 9 -6 9 -7 0 -10 6 -8 12 3 7 -5 21 -16 31 l-21 18 22 -11 22 -10 -18 52 c-11 29 -66 150 -125 268 -138 282 -177 398 -183 545 -4 81 -1 126 10 170 9 32 15 61 13 63 -2 2 -30 -31 -61 -72 -66 -88 -79 -99 -69 -59 24 98 106 284 163 366 38 57 77 135 86 174 3 18 11 35 16 38 5 4 9 21 8 38 0 28 -3 25 -22 -28 -33 -86 -86 -164 -177 -259 -44 -46 -80 -86 -80 -88 0 -3 7 -8 15 -12 8 -3 14 0 12 7 -1 7 4 11 11 9 8 -1 11 1 8 6 -6 11 48 62 66 61 10 0 10 -2 0 -6 -6 -2 -9 -10 -6 -15 4 -7 2 -8 -4 -4 -11 6 -17 -12 -13 -37 0 -4 -2 -6 -6 -6 -18 3 -27 -2 -16 -9 8 -5 8 -13 -2 -32 -11 -20 -14 -21 -15 -7 0 10 -4 16 -9 12 -5 -3 -12 -1 -16 5 -9 15 -25 12 -25 -5 0 -12 -28 -35 -44 -35 -3 0 -1 11 4 25 5 14 9 31 7 38 -1 7 3 11 10 10 13 -3 33 46 98 238 57 165 76 237 125 463 79 358 170 547 292 602 l43 19 -95 5 c-66 4 -89 8 -75 14 11 5 90 37 175 73 85 35 166 68 179 74 34 14 21 20 -20 9 -50 -15 -236 -13 -288 2 l-45 13 73 29 c144 56 252 124 606 381 206 150 282 188 655 335 113 44 257 109 320 144 63 35 118 64 121 65 3 0 14 -6 25 -15z m-4 -37 c-4 -7 -9 -25 -10 -40 -3 -44 -13 -51 -31 -23 -14 21 -20 23 -31 13 -7 -6 -3 2 11 19 13 17 27 30 30 28 4 -2 10 3 13 12 3 8 11 12 16 9 7 -4 7 -12 2 -18z m476 -3 c4 -4 -1 -4 -10 -1 -10 3 -24 0 -32 -8 -7 -8 -16 -12 -18 -9 -7 6 -108 -37 -108 -46 0 -4 -10 -10 -22 -13 -21 -6 -21 -7 -4 -25 17 -20 59 -24 84 -9 8 5 12 3 12 -7 0 -9 -9 -17 -22 -18 -42 -2 -47 -3 -54 -11 -4 -4 -18 -7 -31 -7 -12 0 -23 -4 -23 -9 0 -5 -6 -9 -12 -8 -36 1 -49 -4 -42 -15 6 -10 4 -10 -7 0 -7 6 -18 12 -24 12 -5 0 -4 -4 4 -9 9 -6 10 -11 2 -15 -6 -4 -11 -2 -11 4 0 6 -5 8 -12 4 -7 -5 -2 6 12 23 14 16 30 39 36 49 10 15 14 17 25 7 7 -7 17 -13 23 -13 5 0 2 6 -8 13 -16 12 -17 17 -6 37 10 18 9 24 -1 32 -11 8 -10 9 4 4 9 -3 17 -1 17 4 0 6 3 9 8 8 4 -1 18 4 31 11 13 7 34 11 47 8 13 -2 24 0 24 6 0 5 11 7 25 5 14 -3 28 -2 30 2 6 9 54 4 63 -6z m-839 -87 c-2 -1 -13 -9 -24 -17 -19 -14 -19 -14 -6 3 7 9 18 17 24 17 6 0 8 -1 6 -3z m341 -13 c0 -8 -19 -13 -24 -6 -3 5 1 9 9 9 8 0 15 -2 15 -3z m515 -4 c19 -7 24 -7 19 1 -8 14 36 2 51 -14 7 -7 4 -8 -9 -3 -11 4 -22 3 -25 -1 -3 -5 -19 -17 -35 -27 -25 -16 -28 -16 -23 -3 8 21 -6 29 -51 29 -28 0 -32 2 -19 10 9 5 21 7 25 4 4 -2 14 -1 22 5 18 11 14 11 45 -1z m-960 -30 c-3 -5 -12 -10 -18 -10 -7 0 -6 4 3 10 19 12 23 12 15 0z m-122 -47 c-7 -2 -21 -2 -30 0 -10 3 -4 5 12 5 17 0 24 -2 18 -5z m-44 -12 c9 -6 6 -8 -13 -8 -14 0 -23 3 -20 8 7 11 15 11 33 0z m1331 -16 c0 -1 -12 -2 -26 -2 -17 0 -22 2 -13 7 10 7 39 3 39 -5z m-1403 -9 c0 -8 -3 -14 -6 -14 -3 1 -19 -4 -34 -10 -37 -15 -41 -15 -25 2 7 8 16 12 19 10 3 -2 15 3 25 11 10 8 19 15 20 15 0 0 1 -6 1 -14z m1128 4 c3 -6 -1 -7 -9 -4 -18 7 -21 14 -7 14 6 0 13 -4 16 -10z m334 -9 c10 -6 28 -11 42 -13 13 -2 39 -12 57 -21 18 -10 37 -15 41 -12 8 5 67 -37 82 -58 3 -4 10 -7 15 -6 15 4 81 -41 99 -67 9 -13 19 -23 23 -20 4 2 27 -13 50 -34 23 -22 42 -36 42 -32 1 4 9 -3 19 -15 10 -12 21 -19 25 -16 3 4 7 1 7 -5 1 -7 2 -17 3 -24 0 -6 7 -13 15 -16 9 -3 11 0 6 9 -5 8 1 5 14 -5 12 -11 19 -26 16 -34 -3 -9 0 -12 9 -9 8 3 22 -1 33 -8 10 -8 14 -15 8 -15 -5 0 1 -7 15 -15 15 -9 19 -15 10 -15 -9 0 -5 -6 10 -15 16 -9 19 -14 9 -15 -21 0 -61 48 -52 63 5 9 4 9 -8 0 -12 -9 -23 -3 -62 37 -26 26 -47 45 -47 42 0 -3 -18 13 -40 35 -21 22 -41 39 -43 37 -6 -6 -77 65 -77 77 0 5 -4 7 -10 4 -5 -3 -10 -1 -10 5 0 6 -5 8 -10 5 -6 -3 -13 1 -16 9 -3 9 -10 16 -16 16 -5 0 -6 -5 -2 -11 11 -19 -21 3 -65 44 -23 21 -41 35 -41 32 0 -3 -14 2 -31 11 -17 8 -38 17 -47 19 -39 9 -125 44 -109 44 10 1 26 -3 36 -8z m-1559 -40 c0 -21 -32 -39 -38 -21 -3 8 -8 8 -17 0 -17 -14 -57 -22 -50 -9 4 5 15 9 25 9 10 0 22 5 25 10 4 6 10 8 15 5 4 -3 10 2 14 10 8 21 26 19 26 -4z m-129 -84 c-7 -7 -15 -6 -26 3 -12 10 -13 15 -3 21 17 11 42 -11 29 -24z m-44 -21 c-6 -8 -15 -12 -19 -10 -4 2 -9 0 -13 -6 -3 -5 -11 -10 -17 -10 -6 0 -3 9 7 20 10 11 22 17 26 14 5 -3 9 0 9 6 0 6 4 8 10 5 6 -4 5 -11 -3 -19z m-65 -48 c-5 -5 -16 -6 -26 -2 -13 5 -14 9 -5 20 9 11 15 12 26 3 8 -7 10 -16 5 -21z m-45 -33 c-7 -7 -14 -9 -15 -4 -3 6 -9 5 -17 -1 -10 -8 -15 -8 -21 1 -4 7 -3 9 4 5 6 -3 16 3 22 14 9 17 14 19 25 10 11 -9 12 -15 2 -25z m-57 -19 c0 -3 -13 -19 -30 -37 -22 -25 -33 -30 -41 -22 -13 13 -3 36 12 28 5 -4 17 -1 26 4 14 8 15 11 3 11 -10 1 -9 4 5 10 25 11 25 11 25 6z m-96 -75 c6 -9 -22 -37 -33 -35 -14 3 -30 -9 -24 -19 3 -5 1 -7 -4 -4 -6 4 -16 0 -23 -8 -7 -8 -16 -12 -21 -10 -4 3 -13 -4 -19 -15 -6 -11 -16 -19 -23 -17 -7 1 -11 -4 -9 -12 2 -8 -3 -11 -12 -8 -8 3 -17 1 -20 -6 -3 -8 -5 -8 -5 -1 -1 7 10 19 24 28 14 9 25 13 25 9 0 -4 7 3 16 15 8 12 30 30 47 39 18 9 38 24 45 34 14 21 28 24 36 10z m-206 -159 c-10 -2 -18 -8 -18 -13 0 -5 -10 -9 -22 -8 l-23 0 23 11 c12 6 22 15 22 19 0 5 8 5 18 1 16 -6 16 -7 0 -10z m2907 -3 c11 -16 -1 -22 -30 -15 -14 4 -23 11 -20 16 8 13 42 13 50 -1z m-2980 -39 c-3 -5 -12 -10 -19 -10 -7 0 -21 -9 -31 -20 -17 -19 -41 -18 -29 1 3 5 9 7 14 4 5 -3 12 0 15 6 4 6 17 14 29 19 28 12 28 12 21 0z m3020 -10 c10 -11 16 -20 13 -20 -3 0 -13 9 -23 20 -10 11 -16 20 -13 20 3 0 13 -9 23 -20z m-3131 -54 c-3 -9 -10 -13 -16 -10 -5 3 -18 -2 -29 -12 -14 -13 -18 -14 -14 -3 5 13 56 49 63 44 1 -1 0 -10 -4 -19z m-168 -75 c-17 -18 -17 -20 1 -31 15 -9 13 -10 -12 -5 -16 4 -34 11 -40 17 -7 7 -5 9 4 6 8 -2 23 4 33 14 24 24 36 23 14 -1z m3464 1 c0 -12 -3 -12 -15 -2 -8 7 -15 13 -15 15 0 1 7 2 15 2 8 0 15 -7 15 -15z m34 -28 c5 -14 4 -15 -9 -4 -17 14 -19 20 -6 20 5 0 12 -7 15 -16z m-3381 -57 c13 -21 13 -24 -8 -33 -13 -6 -29 -8 -35 -4 -9 5 -6 10 9 15 l21 6 -21 18 c-21 16 -21 17 -1 18 12 1 27 -8 35 -20z m82 2 c-38 -19 -40 -19 -58 0 -20 19 -19 19 38 19 l58 -1 -38 -18z m3440 -27 c4 -12 0 -11 -16 4 -21 17 -22 17 -16 1 4 -11 3 -16 -3 -12 -5 3 -18 1 -27 -4 -10 -6 -14 -11 -10 -11 4 0 2 -6 -5 -14 -11 -12 -16 -11 -33 8 -11 12 -29 28 -40 35 -18 10 -16 11 12 6 25 -5 35 -2 44 13 11 18 15 18 50 4 21 -8 41 -22 44 -30z m-3579 -34 c-9 -5 -22 -7 -29 -4 -7 2 -4 5 6 5 10 1 15 5 12 11 -4 6 1 7 11 3 15 -6 15 -7 0 -15z m-46 -12 c0 -3 -4 -8 -10 -11 -5 -3 -10 -1 -10 4 0 6 5 11 10 11 6 0 10 -2 10 -4z m-36 -30 c-3 -9 -10 -13 -15 -10 -5 3 -9 3 -9 1 0 -3 18 -14 40 -25 22 -11 40 -15 40 -10 0 7 5 6 13 -1 8 -6 18 -7 22 -3 5 4 5 1 1 -6 -4 -7 -12 -10 -17 -7 -5 4 -9 1 -9 -5 0 -7 -7 -9 -16 -6 -8 3 -12 2 -9 -3 3 -5 1 -12 -5 -16 -6 -4 -8 -10 -5 -15 3 -5 1 -11 -4 -14 -16 -10 -22 11 -6 24 23 19 -1 58 -41 66 -19 3 -31 10 -28 15 3 5 -1 9 -8 10 -7 0 -2 4 10 10 13 5 28 7 33 3 5 -3 9 0 9 7 0 7 2 10 5 7 3 -3 3 -13 -1 -22z m3652 -18 c3 -4 -1 -5 -10 -4 -8 1 -18 5 -22 8 -3 4 1 5 10 4 8 -1 18 -5 22 -8z m-2391 -23 c105 -22 224 -71 310 -128 87 -57 190 -96 276 -104 78 -7 155 13 302 79 129 57 196 76 317 89 88 10 122 9 210 -4 121 -18 243 -55 233 -70 -3 -6 -1 -7 5 -3 46 28 363 -224 482 -383 108 -144 194 -349 226 -536 26 -154 22 -587 -5 -570 -5 2 -11 35 -14 72 -7 85 -47 222 -96 334 -88 200 -249 392 -389 461 -90 46 -165 62 -262 56 -180 -11 -336 -146 -371 -323 l-12 -63 -42 52 c-140 174 -192 315 -166 454 7 37 24 88 38 115 22 39 24 50 13 60 -9 8 -11 8 -6 0 3 -6 -3 -27 -14 -45 -86 -146 -88 -337 -5 -505 71 -143 304 -407 414 -466 69 -38 178 -74 248 -82 103 -13 240 -77 257 -121 4 -9 9 -14 12 -11 13 13 -50 119 -93 157 l-46 40 80 0 c44 0 102 -6 129 -14 l49 -15 -61 57 c-33 31 -63 64 -67 72 -4 10 -6 8 -6 -7 -1 -12 9 -29 21 -37 12 -9 18 -16 13 -16 -5 0 0 -7 11 -15 10 -8 14 -15 8 -15 -5 0 -15 5 -22 12 -7 7 -12 8 -12 4 0 -5 -8 -2 -17 5 -10 8 -14 9 -10 2 6 -9 -7 -11 -48 -8 -43 4 -57 1 -61 -10 -4 -8 -18 -15 -32 -15 -25 0 -26 -10 0 -14 17 -2 64 -43 83 -73 13 -20 13 -22 0 -17 -8 4 -15 14 -15 23 0 11 -3 12 -8 4 -5 -8 -11 -8 -24 1 -10 7 -16 15 -13 18 3 2 -9 2 -26 0 -18 -3 -29 -1 -26 4 3 5 -13 8 -34 8 -32 -2 -38 1 -29 11 8 10 8 15 -1 21 -7 4 -9 3 -5 -4 7 -12 -29 -26 -45 -17 -5 4 -25 9 -42 12 -51 8 -147 55 -148 72 0 11 -2 12 -6 4 -2 -7 -9 -13 -14 -13 -6 0 -7 5 -4 10 4 6 3 9 -2 8 -17 -6 -55 30 -47 44 6 10 5 11 -7 1 -12 -10 -17 -9 -25 5 -6 9 -10 25 -8 35 1 9 -2 15 -7 11 -5 -3 -7 -11 -3 -17 3 -7 -1 -4 -9 5 -8 10 -16 16 -18 14 -2 -2 -13 8 -23 22 -11 14 -14 22 -8 18 6 -3 13 -2 17 3 3 6 -3 8 -14 6 -11 -2 -25 3 -32 11 -10 12 -9 13 4 9 8 -4 18 -2 22 4 3 6 0 9 -8 6 -7 -3 -26 4 -41 16 -23 18 -25 23 -14 37 12 13 10 14 -9 3 -19 -10 -23 -9 -23 4 0 10 -5 13 -12 9 -6 -4 -8 -3 -4 4 3 6 2 13 -4 17 -5 3 -10 11 -10 17 0 6 9 3 20 -7 18 -17 20 -17 14 -2 -6 17 -16 21 -43 18 -7 -2 -10 3 -6 9 4 6 1 9 -7 8 -8 -2 -12 4 -10 16 2 10 -1 15 -7 12 -5 -4 -12 -2 -16 4 -3 5 -1 10 6 10 7 0 10 3 7 6 -4 3 -10 5 -13 4 -7 -1 -55 75 -55 86 0 3 9 0 20 -6 11 -6 18 -15 16 -19 -3 -4 6 -18 19 -29 14 -12 25 -27 25 -33 0 -5 5 -7 10 -4 6 4 9 2 8 -3 -2 -5 13 -27 33 -49 l36 -40 17 27 c9 16 16 36 16 45 0 9 5 13 11 9 7 -4 7 1 -1 16 -10 18 -9 21 1 15 9 -6 11 -3 6 9 -4 10 -1 24 9 33 8 9 13 22 10 29 -3 8 -1 14 4 14 5 0 16 14 25 30 9 17 20 30 26 30 6 0 7 -6 3 -12 -5 -9 -2 -9 9 1 18 15 23 26 7 16 -5 -3 -10 0 -10 7 1 14 82 78 100 78 6 0 8 6 4 13 -6 10 -4 10 7 0 7 -7 18 -13 23 -13 7 0 6 3 -1 8 -8 5 -3 11 13 19 14 6 21 7 18 1 -4 -7 0 -7 12 0 31 16 116 22 164 11 25 -5 54 -11 65 -13 11 -1 30 -8 43 -15 12 -6 26 -10 31 -7 5 3 14 -1 21 -9 11 -13 10 -14 -3 -10 -8 4 -17 2 -20 -2 -3 -5 12 -9 33 -8 21 1 37 -2 34 -6 -2 -4 5 -10 16 -14 11 -4 18 -11 15 -16 -3 -5 0 -6 8 -3 8 3 18 0 23 -7 5 -8 3 -10 -7 -4 -8 4 -4 -2 8 -14 12 -11 26 -21 30 -21 5 0 14 -9 21 -20 7 -12 18 -18 24 -14 8 5 9 2 5 -10 -5 -11 -3 -15 5 -10 8 5 9 2 5 -9 -3 -9 -3 -16 1 -16 25 4 33 -3 27 -23 -5 -18 -4 -19 4 -8 8 12 12 10 19 -10 5 -14 8 -28 5 -33 -2 -4 1 -6 9 -5 7 2 12 -5 12 -14 -1 -10 3 -16 9 -15 5 1 23 -23 39 -53 16 -30 35 -58 41 -62 9 -6 9 -8 0 -8 -8 0 -5 -8 7 -20 11 -11 20 -27 20 -35 0 -9 7 -30 16 -46 8 -17 16 -40 17 -52 2 -12 8 -33 16 -46 7 -12 11 -32 8 -42 -3 -10 -1 -17 4 -13 5 3 9 -1 10 -8 0 -7 2 -29 5 -48 2 -19 6 -51 7 -70 2 -19 10 -46 19 -60 15 -23 15 -33 0 -138 -10 -64 -21 -110 -26 -105 -5 4 -6 -2 -3 -16 6 -24 -11 -74 -22 -66 -4 2 -7 -4 -8 -13 -1 -9 -7 -39 -13 -67 -6 -27 -23 -99 -36 -160 -24 -107 -61 -217 -77 -223 -4 -2 -5 -8 -1 -13 3 -5 1 -9 -4 -9 -6 0 -9 -8 -8 -17 0 -10 -5 -17 -11 -16 -7 2 -12 0 -11 -5 2 -4 -3 -21 -10 -38 -12 -28 -20 -32 -64 -38 -53 -7 -120 -43 -140 -76 -10 -15 -15 -17 -28 -7 -13 10 -13 10 -2 -5 11 -14 11 -22 -3 -48 -9 -17 -14 -34 -11 -39 9 -13 -24 -51 -45 -51 -21 0 -26 16 -7 22 6 2 13 29 16 60 7 93 -21 89 -109 -15 -44 -52 -59 -79 -59 -101 0 -25 -2 -28 -11 -16 -8 12 -9 11 -5 -5 7 -24 -27 -139 -38 -128 -4 4 -4 0 0 -10 3 -10 1 -17 -5 -17 -6 0 -11 -8 -11 -17 0 -15 -2 -16 -10 -3 -5 8 -6 18 -1 23 4 4 -1 47 -12 95 -11 48 -20 95 -21 104 0 9 -4 14 -10 11 -5 -3 -7 6 -4 21 3 15 3 24 0 21 -3 -2 -11 0 -18 6 -19 15 -31 -20 -33 -95 -1 -33 -6 -91 -11 -129 -9 -62 -17 -84 -52 -142 -7 -11 -19 -31 -28 -45 -8 -14 -15 -32 -15 -40 -1 -8 -7 -14 -14 -12 -9 2 -10 -4 -6 -19 5 -15 4 -19 -4 -15 -6 4 -11 0 -11 -9 0 -24 -39 -105 -51 -105 -6 0 -8 -4 -5 -9 3 -4 -4 -17 -17 -27 -12 -10 -16 -12 -9 -4 6 8 12 28 12 45 0 29 -3 32 -30 30 -36 -2 -36 -1 -9 28 12 12 18 15 14 7 -6 -11 -3 -10 12 2 11 10 24 18 29 18 5 0 3 -4 -4 -9 -11 -7 -11 -9 1 -14 10 -4 14 1 13 16 -1 13 4 21 12 20 6 -2 12 3 12 11 0 8 3 16 8 18 15 6 43 68 36 80 -5 7 -3 8 6 3 10 -6 12 -4 7 7 -3 9 0 21 6 27 6 6 8 11 4 11 -4 0 -3 9 3 19 7 13 7 28 0 46 -8 22 -13 24 -30 15 -11 -6 -20 -20 -20 -30 0 -11 -5 -20 -11 -20 -5 0 -7 5 -3 12 4 7 3 8 -5 4 -6 -4 -9 -11 -6 -17 8 -12 -40 -81 -49 -72 -4 4 -4 0 -1 -8 3 -9 -1 -22 -10 -29 -8 -7 -15 -9 -15 -4 0 5 -7 -2 -16 -14 -8 -12 -20 -19 -26 -16 -6 4 -8 2 -4 -4 3 -6 2 -13 -4 -17 -14 -9 -12 16 5 64 10 30 13 66 9 123 -7 108 -20 129 -15 25 2 -44 -2 -106 -9 -136 -14 -67 -54 -147 -70 -143 -6 1 -9 -2 -6 -7 4 -5 2 -12 -4 -16 -6 -4 -8 -10 -5 -15 7 -12 -44 -42 -61 -36 -8 3 -15 16 -15 28 -1 18 -2 19 -6 5 -3 -10 1 -25 9 -34 11 -14 11 -16 -4 -10 -12 4 -15 2 -12 -7 4 -11 10 -11 35 1 16 8 33 11 39 8 6 -4 9 -1 8 5 -4 15 70 41 79 27 3 -5 1 -7 -4 -4 -6 4 -14 0 -17 -9 -3 -8 -11 -12 -16 -9 -6 4 -18 1 -26 -6 -9 -7 -26 -14 -37 -16 -12 -2 -26 -9 -32 -16 -5 -7 -26 -23 -45 -34 l-36 -22 -11 29 -11 30 31 -16 c28 -13 30 -13 12 0 -37 28 -46 38 -43 46 2 4 26 26 53 47 l51 40 -4 -36 c-8 -71 8 -23 23 69 18 112 37 165 82 240 44 73 43 99 -2 30 -19 -30 -35 -60 -35 -68 0 -7 -5 -10 -12 -6 -6 4 -8 3 -4 -4 3 -6 -3 -27 -14 -46 -11 -20 -17 -43 -14 -51 4 -8 2 -15 -4 -15 -14 0 -23 26 -16 47 5 16 4 16 -5 2 -7 -11 -7 -27 -1 -50 22 -73 -9 -116 -150 -206 -47 -31 -109 -78 -138 -107 l-53 -51 7 75 c3 41 4 73 1 70 -2 -3 -14 -36 -25 -73 -17 -58 -18 -66 -4 -55 13 11 15 11 10 -4 -10 -25 2 -29 31 -10 35 22 46 34 54 54 4 11 13 16 24 12 15 -5 16 -4 3 5 -8 6 -10 11 -4 11 6 0 28 11 48 25 20 13 36 22 36 18 0 -3 9 2 19 11 11 10 26 16 33 13 8 -4 5 -8 -9 -12 -13 -4 -20 -11 -17 -16 3 -5 -7 -9 -21 -9 -18 0 -24 -4 -19 -12 4 -7 4 -10 0 -7 -4 4 -20 -7 -36 -23 -17 -16 -34 -27 -40 -23 -6 3 -7 -1 -4 -10 4 -9 2 -15 -4 -13 -5 2 -10 0 -11 -5 -1 -16 -40 -49 -50 -43 -5 4 -12 2 -16 -4 -4 -6 -11 -7 -17 -4 -7 4 -8 2 -4 -5 6 -9 11 -9 22 0 19 16 18 9 -9 -41 -12 -24 -34 -50 -47 -59 l-25 -15 20 24 c17 20 18 23 3 17 -21 -7 -23 3 -5 23 10 12 9 12 -6 1 -9 -8 -19 -12 -20 -10 -1 2 -9 18 -17 34 -8 17 -23 36 -33 44 -20 15 -8 39 13 26 9 -6 9 -10 -1 -16 -10 -6 -10 -9 -2 -9 6 0 18 9 26 20 8 11 17 17 22 12 10 -10 -4 57 -21 93 -13 28 -14 25 -9 -40 l5 -70 -22 30 c-73 96 -289 244 -335 229 -14 -5 -15 -4 -4 4 11 8 6 15 -25 35 -21 13 -52 36 -69 51 -19 17 -31 22 -34 14 -2 -7 2 -14 9 -16 9 -3 9 -7 -1 -14 -11 -7 -9 -8 4 -4 12 4 30 -3 48 -18 15 -13 34 -26 41 -29 9 -3 7 -11 -9 -26 l-22 -21 -17 25 c-9 14 -21 22 -27 18 -5 -3 -7 -2 -4 4 4 5 -5 16 -19 23 -13 8 -23 19 -20 25 2 7 -23 36 -57 66 -36 32 -62 48 -65 41 -2 -7 -8 -9 -14 -6 -7 4 -7 9 1 13 7 5 6 14 -5 29 -29 41 -31 22 -8 -65 28 -108 39 -139 63 -169 16 -20 20 -21 25 -8 3 8 2 12 -4 9 -6 -3 -10 1 -10 9 0 9 -4 16 -10 16 -5 0 -6 7 -3 17 5 12 3 14 -7 8 -9 -5 -11 -4 -6 3 4 6 0 23 -9 36 -21 32 -29 82 -15 91 13 8 52 -24 44 -36 -3 -5 3 -6 12 -2 12 4 15 3 10 -5 -4 -7 -2 -12 6 -12 7 0 22 -8 33 -17 l20 -16 -20 8 c-63 22 -81 5 -55 -52 10 -22 23 -44 30 -48 8 -5 7 -12 -5 -25 -16 -17 -15 -18 9 -16 14 2 23 -1 20 -5 -3 -5 0 -9 6 -9 6 0 9 -4 5 -9 -3 -5 -1 -12 5 -16 6 -4 8 -10 5 -15 -3 -4 2 -10 10 -14 19 -7 19 -23 1 -23 -8 0 -14 5 -13 11 1 6 -3 10 -9 9 -7 -1 -23 8 -36 20 -14 13 -39 30 -57 39 -26 12 -29 17 -16 22 9 3 22 3 28 0 44 -22 -72 64 -189 140 -184 121 -213 143 -229 180 l-13 31 1 -32 c1 -18 6 -33 10 -33 5 0 5 -5 1 -12 -4 -6 -3 -8 4 -4 6 3 13 2 16 -3 10 -15 -43 -5 -63 13 -9 9 -23 16 -30 16 -7 0 -10 4 -7 9 3 5 -6 12 -21 16 -21 5 -24 8 -12 16 11 7 10 9 -7 9 -11 0 -31 11 -44 25 -12 13 -27 22 -33 18 -6 -3 -7 -1 -3 5 4 7 1 12 -9 12 -11 0 -15 5 -11 16 3 8 2 13 -3 10 -4 -3 -28 12 -51 34 -24 22 -47 40 -52 40 -4 0 -8 26 -8 58 0 31 -6 69 -14 84 -10 20 -11 29 -2 38 8 8 7 10 -6 5 -20 -8 -25 10 -5 19 6 3 2 3 -10 0 -13 -3 -23 -1 -23 4 0 14 -96 53 -114 46 -16 -6 -17 11 -1 36 8 13 7 13 -8 1 -9 -7 -14 -17 -11 -22 3 -5 2 -9 -1 -9 -10 0 -49 51 -51 68 -2 7 -10 22 -19 32 -15 16 -15 18 0 24 9 3 13 11 10 16 -5 8 -12 7 -23 -2 -12 -10 -14 -10 -8 0 4 6 2 12 -3 12 -6 0 -11 11 -11 25 0 14 -7 28 -15 31 -8 4 -13 10 -10 14 3 5 -10 7 -28 5 -25 -2 -33 1 -34 14 0 9 -2 121 -4 249 -2 127 -7 232 -11 232 -18 0 -42 120 -42 215 -1 55 -5 103 -9 106 -5 4 -2 19 6 35 14 28 29 88 31 129 1 11 6 31 11 45 5 14 9 30 10 35 1 6 5 23 9 38 7 22 11 26 18 15 7 -9 8 -8 4 6 -7 21 11 49 27 39 6 -3 7 -1 3 6 -4 6 -12 9 -17 6 -5 -3 -6 1 -3 9 3 9 11 13 17 9 6 -3 7 -1 3 5 -8 13 47 124 60 122 5 -1 10 4 13 11 2 8 -1 9 -10 3 -8 -4 -3 6 11 23 14 17 30 28 35 25 6 -3 3 3 -5 13 -8 10 -10 16 -3 12 7 -4 14 1 18 14 4 12 12 18 20 15 8 -3 12 0 10 7 -3 7 5 23 16 37 11 14 17 18 13 10 -7 -13 -5 -13 9 -1 9 7 15 17 12 21 -3 5 0 12 6 16 8 5 9 3 4 -7 -5 -8 4 -3 18 10 15 13 25 27 22 30 -2 4 5 12 15 18 14 9 22 9 36 -2 11 -7 16 -17 12 -21 -4 -4 -14 -1 -23 6 -9 7 -17 11 -20 8 -2 -2 8 -12 24 -21 27 -15 28 -15 27 1 -1 9 -7 27 -14 39 -9 16 -9 24 0 29 7 4 8 3 4 -5 -6 -8 -1 -8 18 0 14 7 23 15 21 19 -3 5 7 11 20 14 16 4 23 11 19 18 -4 7 -3 8 4 4 6 -4 28 1 49 10 59 26 72 28 173 28 92 0 177 -20 205 -47 7 -7 6 -8 -2 -3 -13 7 -12 -19 2 -31 4 -4 5 -3 2 3 -4 7 1 18 10 25 15 12 16 12 11 -8 -4 -15 -2 -20 7 -17 15 6 57 -35 49 -47 -3 -5 2 -6 10 -3 10 4 24 -9 43 -38 15 -24 32 -46 37 -49 4 -4 6 -13 4 -20 -3 -8 3 -25 13 -38 15 -18 16 -27 8 -43 -8 -15 -8 -19 0 -14 7 5 11 -2 11 -16 0 -30 15 -54 24 -39 11 17 -13 120 -41 174 -51 102 -158 191 -268 222 -84 25 -228 17 -311 -17 -125 -52 -269 -177 -363 -317 -85 -124 -180 -363 -182 -455 0 -17 -4 -40 -8 -51 -24 -60 -29 372 -6 512 63 391 297 705 663 892 24 12 50 20 58 17 10 -4 12 -2 8 6 -5 7 0 9 14 6 12 -4 20 -2 17 2 -5 8 102 35 175 44 63 8 213 -2 295 -19z m2495 -51 c0 -2 -9 0 -20 6 -11 6 -20 13 -20 16 0 2 9 0 20 -6 11 -6 20 -13 20 -16z m-3750 -55 c0 -21 -57 -86 -66 -76 -10 10 17 48 28 41 6 -4 8 -3 4 4 -8 13 14 63 25 56 5 -3 9 -14 9 -25z m3803 17 c4 -10 -1 -12 -16 -9 -18 4 -19 3 -7 -6 13 -9 12 -11 -5 -12 -11 -1 -28 -1 -38 -1 -10 1 -20 -5 -23 -13 -4 -11 -11 -12 -23 -5 -12 6 -22 5 -29 -2 -11 -11 -32 -3 -32 14 0 7 5 6 15 -2 12 -10 16 -9 21 4 5 12 10 13 24 6 13 -7 21 -7 25 1 4 6 14 8 22 4 10 -3 22 3 30 15 17 23 29 26 36 6z m-121 -64 c-8 -2 -3 -11 13 -23 13 -11 24 -24 22 -28 -1 -5 14 -28 33 -52 19 -24 35 -50 37 -58 1 -8 6 -17 11 -20 9 -6 42 -75 41 -88 -1 -3 5 -9 11 -13 9 -6 9 -9 1 -14 -12 -8 -41 49 -41 81 0 15 -2 16 -10 3 -8 -13 -10 -12 -10 3 0 9 -5 17 -11 17 -5 0 -7 5 -4 10 3 6 1 10 -4 10 -6 0 -10 3 -9 8 3 14 -14 42 -23 36 -5 -3 -6 2 -3 10 4 10 1 16 -7 16 -7 0 -10 3 -6 6 3 4 -1 13 -9 21 -8 8 -11 20 -7 26 4 6 0 8 -10 4 -9 -3 -19 -1 -23 5 -4 7 -3 8 4 4 7 -4 12 -3 12 2 0 5 -10 12 -22 15 -18 5 -19 8 -9 21 8 9 18 13 24 9 8 -5 7 -8 -1 -11z m-3742 -61 c0 -5 -7 -16 -15 -25 -9 -8 -15 -19 -14 -23 4 -24 -2 -36 -11 -27 -12 12 6 64 22 64 5 0 6 5 3 10 -3 6 -1 10 4 10 6 0 11 -4 11 -9z m-40 -112 c0 -10 -5 -19 -12 -19 -6 0 -9 -3 -5 -6 3 -3 1 -18 -5 -33 -6 -14 -12 -39 -14 -56 -2 -16 -8 -39 -13 -50 -11 -22 -33 -146 -39 -218 -1 -10 -6 -16 -11 -13 -5 4 -7 -4 -3 -16 4 -15 2 -19 -7 -13 -10 5 -11 2 -7 -12 8 -26 -18 -92 -27 -69 -4 9 -2 16 3 16 6 0 10 12 10 26 0 39 21 114 32 114 6 0 5 7 -2 15 -8 10 -9 15 -2 15 7 0 9 7 5 17 -4 10 -2 14 4 10 8 -5 10 5 9 28 -2 20 1 38 5 41 5 3 9 18 9 35 0 16 3 29 8 29 4 0 8 17 10 38 2 34 6 48 28 107 4 11 6 26 5 34 -1 7 2 10 8 6 6 -3 11 -15 11 -26z m3986 -176 c7 -8 11 -20 8 -28 -4 -8 -1 -15 6 -15 6 0 8 -4 5 -10 -3 -5 1 -20 9 -32 20 -28 20 -38 2 -38 -9 0 -12 7 -9 23 4 18 3 19 -6 7 -9 -12 -11 -11 -11 8 0 12 1 24 3 26 1 2 -6 13 -16 24 -11 12 -16 25 -13 31 3 5 -1 16 -9 24 -11 12 -12 16 -2 20 6 2 14 -3 16 -11 2 -9 9 -22 17 -29z m53 -162 c2 -14 4 -34 4 -43 1 -10 5 -18 10 -18 4 0 6 -4 3 -9 -3 -4 -1 -23 4 -41 7 -24 7 -31 -1 -23 -10 10 -28 73 -34 120 -2 12 -6 26 -9 31 -3 5 1 9 7 9 7 0 14 -12 16 -26z m-1645 -231 l6 -35 -18 30 c-10 17 -22 43 -26 60 l-8 30 20 -25 c10 -14 22 -41 26 -60z m1692 -53 c12 -78 13 -110 5 -124 -10 -15 -10 -14 -5 9 3 15 1 51 -5 80 -15 68 -25 155 -16 147 3 -4 13 -54 21 -112z m-4224 75 c-7 -2 -10 -8 -7 -12 3 -5 -1 -25 -9 -45 -8 -19 -13 -35 -10 -35 2 0 -3 -14 -11 -30 -9 -17 -13 -35 -10 -40 3 -5 1 -11 -4 -14 -12 -8 -7 33 7 60 6 12 9 24 5 27 -3 4 0 13 6 21 7 8 14 27 15 43 2 15 4 32 5 36 0 5 6 5 13 1 9 -6 9 -9 0 -12z m-66 -219 c-10 -10 -19 5 -10 18 6 11 8 11 12 0 2 -7 1 -15 -2 -18z m-13 -41 c-6 -4 -13 -18 -15 -32 -1 -14 -6 -20 -10 -14 -4 6 -1 22 7 37 7 14 12 28 11 30 -2 2 2 0 8 -5 8 -6 8 -11 -1 -16z m4327 -14 c0 -16 -3 -19 -11 -11 -6 6 -8 16 -5 22 11 17 16 13 16 -11z m-4229 -65 c-12 -20 -14 -14 -5 12 4 9 9 14 11 11 3 -2 0 -13 -6 -23z m4246 -115 c-3 -8 -6 -5 -6 6 -1 11 2 17 5 13 3 -3 4 -12 1 -19z m-4284 -206 c-2 -15 -6 -45 -7 -67 -1 -22 -5 -46 -9 -52 -5 -7 -4 -13 1 -13 5 0 9 -6 9 -12 3 -65 8 -98 16 -98 5 0 7 -6 4 -12 -2 -7 2 -25 9 -39 7 -15 10 -30 6 -33 -3 -4 0 -11 8 -16 8 -5 11 -13 6 -17 -4 -4 -14 1 -22 11 -11 16 -11 21 -1 28 8 5 9 8 0 8 -12 0 -46 128 -37 142 3 4 1 16 -5 26 -6 11 -6 24 0 35 7 12 6 17 -1 17 -6 0 -9 4 -6 9 3 4 -3 16 -14 26 -11 10 -20 14 -20 8 0 -5 -15 -20 -32 -33 -18 -13 -28 -17 -22 -9 6 8 10 22 9 32 -3 14 -1 16 10 7 11 -9 21 -5 44 19 16 16 32 39 36 51 9 29 25 15 18 -18z m4237 -379 c-11 -17 -11 -17 -6 0 3 10 6 24 7 30 0 9 2 9 5 0 3 -7 0 -20 -6 -30z m-4170 -52 c0 -20 2 -23 10 -11 7 12 9 10 10 -8 0 -12 0 -32 1 -43 0 -12 3 -19 6 -15 7 7 93 -160 93 -180 0 -9 5 -12 10 -9 6 3 10 3 11 -2 3 -29 9 -47 21 -54 10 -7 10 -9 1 -9 -7 0 -13 -4 -13 -10 0 -5 6 -7 14 -4 16 6 16 -19 1 -33 -4 -4 -5 -3 -2 3 4 7 0 14 -8 18 -8 3 -15 14 -15 24 0 11 -7 25 -15 32 -8 7 -13 16 -10 20 3 5 1 11 -5 15 -5 3 -10 15 -10 26 0 11 -4 17 -10 14 -5 -3 -10 0 -10 7 0 7 -18 49 -39 93 -46 94 -55 116 -52 133 1 6 -3 12 -9 12 -5 0 -10 10 -10 23 1 21 1 22 15 3 8 -11 15 -31 15 -45z m4169 2 c-12 -32 -28 -53 -40 -53 -16 0 -10 18 17 49 32 38 36 39 23 4z m-289 -83 c5 0 11 -7 14 -16 4 -10 2 -13 -6 -8 -7 4 -2 -9 11 -29 15 -24 20 -44 15 -55 -4 -9 -6 -21 -5 -25 1 -5 -7 -11 -18 -14 -11 -3 -23 -13 -26 -23 -8 -26 -32 -44 -32 -25 0 8 3 15 7 15 3 0 7 44 7 98 2 129 2 131 15 105 6 -13 14 -23 18 -23z m260 -16 c0 -16 -16 -19 -25 -4 -8 13 4 32 16 25 5 -4 9 -13 9 -21z m-30 -68 c0 -3 -4 -8 -10 -11 -5 -3 -10 -1 -10 4 0 6 5 11 10 11 6 0 10 -2 10 -4z m-23 -34 c7 -4 9 -13 4 -21 -10 -16 -31 -6 -31 15 0 16 9 18 27 6z m-152 -82 c4 -54 2 -61 -10 -49 -18 18 -28 86 -14 95 6 3 8 13 4 23 -4 11 -3 13 4 6 6 -6 13 -40 16 -75z m105 -30 c0 -5 -5 -10 -11 -10 -5 0 -7 5 -4 10 3 6 8 10 11 10 2 0 4 -4 4 -10z m-190 -18 c0 -11 -51 -64 -57 -59 -9 9 28 67 42 67 8 0 15 -3 15 -8z m83 -72 c0 -17 -4 -35 -9 -40 -5 -5 -9 10 -9 40 0 30 4 45 9 40 5 -5 9 -23 9 -40z m-3723 -38 c0 -7 -5 -10 -10 -7 -6 4 -8 10 -5 15 3 5 1 11 -5 15 -5 3 -10 14 -10 23 1 12 5 10 15 -8 8 -14 14 -31 15 -38z m3783 33 c-3 -9 -8 -14 -10 -11 -3 3 -2 9 2 15 9 16 15 13 8 -4z m-190 -18 c9 -23 -8 -40 -22 -23 -13 15 -7 36 9 36 4 0 10 -6 13 -13z m-3570 -57 c3 -11 1 -18 -4 -14 -5 3 -9 12 -9 20 0 20 7 17 13 -6z m3539 -2 c7 -18 -2 -39 -13 -32 -8 5 -13 -10 -6 -20 1 -2 -7 -13 -17 -25 -11 -12 -15 -21 -11 -21 4 0 -2 -9 -15 -20 -13 -11 -19 -20 -14 -20 5 0 1 -5 -8 -11 -10 -5 -18 -17 -18 -24 0 -20 -16 -19 -24 1 -3 8 -2 13 3 10 9 -6 26 22 23 37 -1 4 3 7 8 7 6 0 16 11 22 25 6 14 18 25 27 25 13 0 13 2 2 9 -11 7 -10 14 5 40 20 33 29 38 36 19z m-3208 -142 c18 -7 44 -25 59 -40 40 -39 63 -145 35 -162 -7 -4 -8 -3 -4 4 4 7 2 12 -4 12 -7 0 -10 7 -7 14 4 10 1 13 -7 10 -7 -3 -19 3 -27 12 -12 16 -12 17 1 10 8 -4 6 0 -4 8 -11 9 -23 16 -27 16 -4 0 -10 11 -13 25 -3 13 -21 36 -40 50 -46 35 -53 55 -20 55 13 0 40 -6 58 -14z m3080 -63 c4 -9 3 -19 -2 -22 -5 -3 -26 -28 -46 -56 -43 -58 -116 -130 -116 -115 0 6 9 18 20 28 56 47 71 67 66 85 -2 10 -2 16 1 13 6 -6 23 19 42 62 12 26 26 28 35 5z m-100 -106 c-3 -8 -12 -18 -20 -21 -11 -4 -10 0 3 18 20 26 27 28 17 3z m-150 -166 c3 -4 -5 -18 -18 -30 -20 -19 -23 -19 -23 -4 0 10 7 23 16 30 20 15 19 15 25 4z m-54 -52 c-6 -10 -15 -19 -21 -19 -6 0 -7 -5 -3 -12 4 -6 3 -8 -3 -5 -6 4 -14 0 -17 -9 -3 -8 -11 -12 -17 -8 -7 4 -9 3 -6 -3 10 -16 -30 -46 -49 -39 -14 5 -15 4 -4 -9 11 -13 10 -14 -4 -9 -24 9 -20 19 25 55 22 19 52 46 67 60 30 29 47 28 32 -2z m-525 -66 c-15 -65 -49 -145 -70 -166 -27 -26 -194 -122 -201 -114 -3 2 18 21 45 41 68 50 168 161 197 219 27 53 40 61 29 20z m-1727 -50 c20 -16 40 -32 44 -38 5 -7 8 -7 8 0 0 6 3 6 8 0 12 -18 109 -85 114 -79 3 2 24 -11 48 -31 23 -19 46 -35 51 -35 5 0 9 -8 9 -17 0 -14 2 -15 9 -5 6 10 10 10 21 -3 10 -13 9 -15 -7 -15 -11 0 -23 3 -27 8 -4 4 -13 7 -19 7 -7 1 -11 6 -10 13 2 7 -2 13 -7 13 -5 1 -15 2 -21 3 -6 0 -17 9 -24 20 -8 10 -19 15 -26 10 -8 -4 -10 -3 -5 4 4 7 1 12 -9 12 -8 0 -18 7 -21 15 -4 8 -10 12 -15 9 -5 -3 -9 2 -9 12 0 14 -2 15 -17 3 -15 -12 -16 -12 -10 5 5 13 3 17 -7 13 -8 -3 -20 1 -26 9 -7 8 -16 14 -21 14 -5 0 -29 14 -54 32 -31 22 -41 34 -32 40 16 10 14 11 55 -19z m1971 -129 c-14 -18 -24 -11 -15 11 3 9 11 13 16 10 8 -5 7 -11 -1 -21z m-142 -79 c0 -8 -6 -16 -14 -19 -16 -7 -17 6 -1 22 15 15 15 15 15 -3z m-1170 -14 c9 -11 20 -18 24 -16 4 3 12 -2 19 -10 7 -8 17 -15 22 -15 5 0 16 -7 25 -15 8 -8 19 -12 25 -9 7 4 8 2 4 -4 -4 -7 -1 -12 7 -12 8 0 37 -23 66 -51 48 -47 62 -69 43 -69 -10 0 -37 43 -34 53 1 5 -2 5 -9 2 -6 -4 -17 2 -25 14 -15 21 -124 96 -135 94 -3 -1 -21 11 -40 27 -19 16 -28 29 -21 30 7 0 20 -9 29 -19z m893 4 c0 -8 -4 -15 -10 -15 -5 0 -7 7 -4 15 4 8 8 15 10 15 2 0 4 -7 4 -15z m166 -76 c8 -14 -11 -33 -25 -25 -11 7 -4 36 9 36 5 0 12 -5 16 -11z m-86 -32 c0 -7 -20 -34 -45 -62 -38 -42 -45 -46 -45 -28 0 12 13 38 30 56 16 19 28 36 25 38 -2 3 5 5 15 6 11 1 20 -4 20 -10z m15 -36 c-3 -6 -11 -8 -17 -5 -6 4 -5 9 3 15 16 10 23 4 14 -10z"/><default:path d="M2805 5270 c-3 -6 1 -7 9 -4 18 7 21 14 7 14 -6 0 -13 -4 -16 -10z"/><default:path d="M3286 5048 c3 -4 11 -5 19 -1 21 7 19 12 -4 10 -11 0 -18 -5 -15 -9z"/><default:path d="M3491 5046 c-64 -16 -151 -56 -151 -69 0 -5 8 -6 18 -2 9 4 32 11 50 17 18 5 31 12 28 16 -6 9 38 12 231 15 149 2 159 3 125 15 -54 20 -236 25 -301 8z"/><default:path d="M3454 4930 c-231 -60 -359 -170 -404 -346 -11 -43 -20 -91 -20 -108 l1 -31 13 31 c8 18 14 38 13 45 0 8 1 25 1 38 2 24 2 24 17 5 8 -10 14 -26 15 -34 0 -13 -2 -13 -11 0 -9 12 -10 12 -5 -3 3 -10 6 -21 6 -23 0 -2 4 -4 9 -4 5 0 12 19 16 43 19 115 79 212 165 267 44 28 49 35 38 49 -12 14 -11 14 4 3 15 -12 26 -10 76 16 33 16 80 35 106 43 25 7 46 17 46 21 0 10 -3 10 -86 -12z m-174 -93 c-14 -6 -32 -19 -40 -28 -8 -8 -27 -24 -42 -33 -16 -10 -28 -25 -28 -34 0 -12 -3 -13 -12 -4 -9 9 -5 18 15 38 15 15 27 23 27 19 0 -5 8 2 18 13 11 12 30 26 43 31 34 14 49 12 19 -2z m-134 -121 c-2 -13 -13 -37 -23 -52 -10 -16 -17 -31 -16 -34 5 -10 -9 -70 -17 -70 -13 0 -20 30 -14 56 3 13 10 22 14 19 5 -3 6 4 3 15 -3 12 0 20 7 20 7 0 10 7 6 16 -3 8 -2 13 3 10 5 -3 12 5 15 19 8 32 28 33 22 1z"/><default:path d="M2537 4901 c96 -49 185 -124 177 -149 -5 -14 -4 -14 4 -3 7 10 7 21 -1 35 -6 12 -10 25 -9 29 1 5 -2 6 -7 3 -5 -3 -14 1 -20 8 -22 27 6 26 42 -2 20 -15 36 -30 37 -33 0 -4 17 -25 38 -47 55 -59 75 -90 107 -164 34 -77 45 -83 20 -9 -57 174 -257 350 -415 367 l-55 6 82 -41z m85 -13 c16 -7 28 -19 28 -25 0 -7 5 -13 11 -13 5 0 7 5 3 12 -5 7 -3 8 5 3 10 -5 10 -10 1 -19 -8 -8 -14 -7 -23 4 -7 9 -28 26 -47 39 -36 23 -27 23 22 -1z"/><default:path d="M1999 4913 c-13 -16 -12 -17 4 -4 9 7 17 15 17 17 0 8 -8 3 -21 -13z"/><default:path d="M2024 4908 l-19 -23 23 19 c21 18 27 26 19 26 -2 0 -12 -10 -23 -22z"/><default:path d="M2265 4901 c-15 -6 -8 -11 35 -21 30 -7 72 -21 92 -31 21 -11 40 -19 43 -19 12 0 -21 25 -55 42 l-35 18 45 -5 c43 -4 148 -39 180 -60 8 -5 21 -10 28 -11 22 -4 48 -32 49 -54 2 -28 -25 -26 -93 6 -49 23 -71 31 -97 33 -5 1 -6 4 -4 9 3 4 -5 8 -16 9 -12 1 -56 11 -97 23 -102 29 -229 25 -284 -9 -20 -13 -35 -25 -33 -28 3 -2 31 0 63 6 84 16 214 13 296 -5 127 -29 330 -122 369 -170 8 -10 10 -15 4 -13 -5 3 -44 21 -85 41 -99 48 -215 78 -320 83 -56 3 -77 2 -60 -4 14 -5 44 -9 68 -10 23 -1 42 -5 42 -11 0 -5 5 -10 11 -10 5 0 7 5 4 10 -8 13 -3 13 32 -1 15 -6 44 -13 63 -16 19 -3 38 -9 41 -14 3 -6 13 -7 22 -3 11 4 17 1 17 -7 0 -7 3 -9 6 -6 4 3 16 1 28 -5 11 -7 25 -11 29 -10 5 1 6 -2 3 -7 -4 -5 -1 -13 5 -17 8 -4 9 -3 5 4 -4 7 -3 12 3 12 5 0 13 -5 16 -10 11 -17 -25 -23 -43 -7 -30 26 -162 61 -307 80 -11 1 -24 5 -30 9 -29 17 -440 -30 -421 -49 2 -3 40 1 83 8 106 18 411 18 488 0 153 -34 306 -124 458 -270 48 -46 87 -79 87 -74 0 5 -9 18 -19 27 -11 10 -17 25 -14 34 4 13 3 14 -5 3 -8 -10 -12 -9 -25 9 -25 36 -114 109 -210 171 -42 28 -53 49 -26 49 6 0 8 -4 4 -9 -3 -6 3 -8 14 -6 11 2 25 -3 32 -11 6 -8 16 -14 21 -14 6 0 4 8 -3 17 -12 15 -12 16 3 10 10 -3 20 -1 24 5 4 6 3 8 -4 4 -6 -3 -19 5 -30 19 -11 14 -24 25 -29 25 -4 0 -14 9 -21 20 -7 12 -18 17 -29 13 -11 -4 -14 -3 -9 6 4 6 4 11 -1 10 -26 -5 -35 1 -23 16 6 8 9 19 5 25 -8 13 1 13 27 -1 16 -9 19 -8 16 3 -7 22 -147 97 -231 123 -77 25 -162 31 -202 16z m-105 -61 c-8 -5 -22 -9 -30 -9 -10 0 -8 3 5 9 27 12 43 12 25 0z"/><default:path d="M4065 4901 c-3 -5 -2 -12 3 -15 5 -3 9 1 9 9 0 17 -3 19 -12 6z"/><default:path d="M1912 4819 c-9 -15 -19 -18 -35 -14 -21 7 -21 7 -3 -8 18 -13 22 -12 39 10 11 13 17 26 15 28 -2 2 -9 -5 -16 -16z"/><default:path d="M2478 4833 c7 -3 16 -2 19 1 4 3 -2 6 -13 5 -11 0 -14 -3 -6 -6z"/><default:path d="M3695 4809 c-87 -16 -190 -41 -201 -50 -6 -5 -15 -5 -19 -1 -5 4 -5 1 -1 -6 4 -7 11 -10 16 -7 4 3 10 -1 13 -7 3 -10 8 -10 18 1 9 9 9 11 2 7 -7 -4 -13 -3 -13 2 0 5 19 13 43 17 23 4 51 9 62 12 97 18 132 23 154 22 24 0 24 -1 6 -10 -22 -10 172 -3 235 8 33 6 34 7 10 14 -35 10 -265 9 -325 -2z m142 -5 c-3 -3 -12 -4 -19 -1 -8 3 -5 6 6 6 11 1 17 -2 13 -5z m50 0 c-3 -3 -12 -4 -19 -1 -8 3 -5 6 6 6 11 1 17 -2 13 -5z"/><default:path d="M1820 4800 c-8 -35 -7 -41 5 -36 8 3 16 0 19 -7 2 -7 5 -7 5 -1 1 10 -27 53 -29 44z"/><default:path d="M3398 4756 c-88 -45 -153 -86 -199 -127 -26 -24 -89 -118 -89 -134 0 -13 36 28 54 61 20 37 45 65 76 87 28 19 54 23 29 4 -15 -11 -15 -14 -1 -27 14 -13 15 -12 9 3 -3 9 -2 19 3 22 5 3 7 12 3 20 -3 8 0 15 7 15 6 0 27 12 45 26 20 15 39 23 46 18 7 -4 9 -3 6 3 -7 12 40 36 54 28 5 -4 9 -1 9 4 0 6 6 11 14 11 7 0 19 7 26 15 20 24 -1 18 -92 -29z"/><default:path d="M3800 4751 c25 -4 58 -13 73 -20 16 -6 33 -9 38 -6 5 4 17 1 26 -5 13 -7 -4 -8 -62 -3 -139 14 -287 7 -364 -16 -19 -6 -38 -8 -44 -4 -6 3 -7 1 -3 -5 10 -16 -7 -15 -23 1 -8 7 -11 7 -8 1 4 -7 -7 -17 -26 -24 -44 -16 -81 -34 -87 -41 -17 -18 -58 -39 -80 -40 -14 0 -19 -3 -12 -6 10 -4 8 -9 -7 -20 -12 -8 -25 -11 -31 -8 -6 3 -7 -1 -4 -9 8 -21 6 -21 63 19 59 43 173 96 261 121 52 15 98 18 230 18 162 0 193 -4 369 -45 46 -11 85 -18 87 -16 7 7 -139 65 -218 87 -40 11 -107 22 -148 25 -58 3 -65 2 -30 -4z"/><default:path d="M3585 4654 c-11 -2 -45 -9 -75 -15 -124 -24 -280 -92 -301 -130 -7 -15 -6 -17 6 -13 8 3 13 10 10 14 -5 8 32 23 48 21 5 -1 6 3 3 8 -3 5 10 12 30 15 19 4 51 16 70 27 19 10 52 22 72 25 20 3 44 10 53 15 9 4 24 8 35 8 26 0 83 8 115 16 15 4 30 2 33 -3 3 -6 -19 -13 -51 -17 -36 -4 -52 -10 -43 -15 8 -4 62 0 120 8 127 19 294 7 460 -33 58 -13 110 -24 115 -24 23 1 -96 42 -190 66 -87 22 -126 26 -295 29 -107 1 -204 1 -215 -2z"/><default:path d="M2155 4639 c-22 -4 -71 -8 -108 -8 -38 -1 -66 -5 -63 -10 3 -5 45 -14 93 -21 49 -6 124 -23 168 -37 75 -23 109 -39 196 -91 28 -17 36 -19 36 -7 0 8 -3 12 -7 10 -4 -3 -15 4 -25 15 -10 11 -24 20 -31 20 -7 0 -19 7 -28 15 -8 9 -18 16 -21 15 -21 -1 -25 1 -19 12 5 8 2 9 -11 4 -10 -3 -28 0 -41 8 -12 9 -37 18 -55 21 -18 3 -35 8 -39 10 -4 2 -22 7 -41 10 -18 3 -35 7 -37 9 -6 7 99 16 110 10 7 -4 8 -3 4 4 -9 15 16 15 108 2 37 -6 80 -17 95 -24 14 -8 73 -35 131 -60 116 -51 242 -123 301 -174 22 -19 44 -30 50 -26 8 4 9 3 5 -4 -3 -6 2 -16 13 -22 36 -19 31 6 -9 45 -21 20 -43 34 -49 30 -6 -3 -10 -1 -9 6 6 25 -208 152 -335 199 -124 46 -274 62 -382 39z"/><default:path d="M2933 4636 c3 -7 9 -34 12 -60 4 -25 10 -46 14 -46 4 0 15 -21 26 -46 11 -26 21 -41 23 -35 6 17 -59 201 -71 201 -5 0 -7 -6 -4 -14z"/><default:path d="M1636 4627 c3 -10 9 -15 12 -12 3 3 0 11 -7 18 -10 9 -11 8 -5 -6z"/><default:path d="M4350 4609 c0 -5 5 -7 10 -4 6 3 10 8 10 11 0 2 -4 4 -10 4 -5 0 -10 -5 -10 -11z"/><default:path d="M2407 4599 c7 -7 15 -10 18 -7 3 3 -2 9 -12 12 -14 6 -15 5 -6 -5z"/><default:path d="M1661 4595 c1 -19 18 -51 18 -35 0 8 -4 22 -9 30 -5 8 -9 11 -9 5z"/><default:path d="M4404 4575 c-20 -30 -12 -84 15 -109 22 -20 37 -5 22 21 -6 10 -11 12 -11 6 0 -25 -18 -12 -24 17 -6 35 9 84 24 75 6 -4 7 -11 4 -17 -4 -7 -2 -8 5 -4 9 6 9 11 0 22 -15 18 -16 18 -35 -11z"/><default:path d="M3592 4583 c-6 -2 -9 -9 -6 -15 5 -7 -2 -9 -19 -6 -16 3 -24 1 -20 -5 3 -5 0 -7 -8 -5 -8 3 -36 -1 -62 -8 -27 -7 -56 -10 -65 -7 -12 3 -13 2 -5 -4 8 -6 -8 -18 -50 -38 -34 -16 -68 -35 -76 -42 -7 -8 -22 -11 -35 -8 -14 4 -17 3 -8 -3 11 -7 10 -11 -5 -17 -10 -5 -22 -7 -26 -6 -5 1 -6 -3 -3 -8 8 -13 -21 -34 -35 -25 -7 4 -9 3 -6 -3 8 -13 -17 -36 -27 -26 -4 4 -4 -1 0 -11 5 -13 4 -17 -3 -13 -6 4 -13 -3 -16 -15 -5 -16 5 -10 41 24 90 86 193 144 328 183 47 14 103 25 123 25 28 0 33 3 21 11 -11 8 -5 9 25 5 22 -4 54 -6 70 -7 l30 0 -30 -10 c-16 -5 -57 -11 -90 -13 -67 -4 -152 -31 -265 -83 -93 -44 -106 -53 -88 -66 9 -6 8 -7 -6 -3 -33 11 -124 -60 -123 -96 0 -14 8 -11 41 15 184 148 431 229 739 244 71 3 123 9 115 13 -7 4 -103 10 -213 13 -110 3 -207 7 -215 10 -8 3 -21 3 -28 0z m-252 -167 c0 -2 -7 -7 -16 -10 -8 -3 -12 -2 -9 4 6 10 25 14 25 6z"/><default:path d="M2436 4565 c4 -8 11 -15 18 -15 11 0 48 -24 156 -97 30 -21 61 -37 68 -35 6 2 12 -2 12 -7 0 -5 9 -13 20 -16 11 -4 17 -11 14 -17 -4 -7 -2 -8 4 -4 14 8 55 -18 45 -28 -4 -4 1 -4 11 0 12 5 17 4 13 -3 -3 -5 -1 -10 6 -11 21 -2 41 -8 81 -25 22 -10 44 -16 50 -14 6 2 -32 24 -85 49 -52 25 -121 61 -152 81 -32 21 -60 37 -62 37 -3 0 -47 27 -98 60 -52 33 -97 60 -100 60 -4 0 -4 -7 -1 -15z"/><default:path d="M1563 4532 c-2 -27 0 -33 7 -22 12 18 13 47 3 53 -5 3 -9 -11 -10 -31z"/><default:path d="M4323 4530 c0 -25 2 -35 4 -22 2 12 2 32 0 45 -2 12 -4 2 -4 -23z"/><default:path d="M1510 4541 c0 -5 5 -13 10 -16 6 -3 10 -2 10 4 0 5 -4 13 -10 16 -5 3 -10 2 -10 -4z"/><default:path d="M1915 4545 c-5 -2 -23 -6 -40 -10 -27 -6 -21 -10 65 -40 52 -19 96 -32 97 -31 2 1 -25 15 -58 30 -34 15 -59 30 -56 33 11 11 197 -8 190 -19 -4 -8 4 -9 26 -5 23 5 30 3 25 -5 -5 -7 -2 -9 9 -5 18 7 241 -46 232 -55 -3 -3 6 -3 20 0 36 6 28 11 -62 33 -208 53 -414 87 -448 74z"/><default:path d="M1425 4506 c-20 -21 -20 -23 -3 -41 10 -10 20 -16 23 -13 3 3 -1 13 -10 22 -14 14 -15 17 -2 22 16 6 32 35 19 33 -4 -1 -16 -11 -27 -23z"/><default:path d="M3785 4509 c-114 -17 -240 -60 -385 -133 -80 -40 -162 -78 -182 -85 -51 -17 -54 -26 -8 -26 22 0 34 3 27 7 -8 5 -4 10 12 15 13 3 44 17 68 30 49 26 57 28 47 12 -4 -7 2 -7 17 1 35 18 38 23 9 16 -21 -6 -22 -5 -7 4 10 7 24 9 32 6 10 -3 12 0 8 12 -3 9 -3 14 2 10 4 -4 21 2 37 13 16 12 36 18 44 15 10 -4 13 -2 8 6 -5 7 0 9 14 6 12 -4 20 -2 17 2 -3 5 22 17 55 28 33 10 63 15 66 11 3 -5 2 -9 -3 -9 -4 0 -25 -16 -45 -36 -21 -19 -42 -32 -48 -29 -6 4 -7 -1 -3 -12 6 -16 4 -16 -17 2 l-23 20 14 -22 c8 -13 16 -23 19 -23 4 0 24 16 45 36 59 54 192 114 252 114 12 0 23 5 23 10 0 11 -10 11 -95 -1z m-70 -39 c-3 -5 -14 -10 -23 -9 -14 0 -13 2 3 9 27 11 27 11 20 0z"/><default:path d="M4521 4504 c0 -11 3 -14 6 -6 3 7 2 16 -1 19 -3 4 -6 -2 -5 -13z"/><default:path d="M1681 4493 c0 -12 -4 -30 -7 -40 -5 -17 -5 -17 6 0 6 10 9 28 7 40 -4 22 -4 22 -6 0z"/><default:path d="M1508 4476 c-6 -32 10 -34 42 -6 13 11 19 20 15 20 -5 0 -17 -8 -28 -17 -11 -10 -18 -13 -14 -8 3 6 2 17 -2 24 -6 9 -10 5 -13 -13z"/><default:path d="M4545 4489 c-10 -15 3 -25 16 -12 7 7 7 13 1 17 -6 3 -14 1 -17 -5z"/><default:path d="M1741 4483 c-19 -4 -9 -10 45 -28 78 -27 101 -31 64 -11 -24 14 -23 14 22 14 26 -1 46 -4 43 -7 -2 -4 18 -5 43 -4 29 2 42 -1 34 -6 -11 -7 -10 -9 3 -14 10 -4 14 -3 9 4 -4 8 1 9 17 5 23 -7 23 -6 -2 8 -20 11 -242 51 -252 45 -1 -1 -13 -4 -26 -6z"/><default:path d="M3990 4475 c-136 -25 -327 -89 -400 -132 -25 -14 -31 -15 -47 -2 -17 13 -17 13 -4 -4 16 -21 67 -19 81 3 7 12 11 12 27 -1 16 -13 17 -12 5 2 -11 14 -8 17 19 23 17 3 45 12 62 20 63 28 167 57 178 50 8 -4 9 -3 5 4 -4 7 -3 12 2 12 6 0 12 -7 16 -15 3 -8 0 -15 -6 -15 -6 0 -9 -2 -6 -5 3 -3 22 2 44 11 21 9 75 27 119 40 l80 23 -55 -1 c-30 0 -84 -6 -120 -13z m-16 -30 c-10 -8 -23 -14 -29 -14 -5 0 -1 6 9 14 11 8 24 15 30 15 5 0 1 -7 -10 -15z"/><default:path d="M4060 4430 c-80 -17 -147 -38 -125 -39 6 0 27 3 48 8 31 8 36 7 27 -4 -6 -8 -17 -12 -24 -9 -7 3 -23 -4 -36 -16 -28 -25 -27 -25 35 -1 130 48 355 54 485 12 35 -11 66 -18 69 -16 7 8 -100 53 -164 70 -78 20 -209 18 -315 -5z"/><default:path d="M1730 4409 c-71 -9 -150 -30 -150 -40 0 -3 21 -6 48 -7 26 -1 71 -7 100 -13 30 -6 56 -8 59 -6 3 3 -11 9 -31 12 -20 4 -33 11 -31 16 3 4 -11 6 -32 3 -24 -3 -34 -1 -28 5 6 6 48 13 95 17 47 4 91 10 98 14 19 9 -50 9 -128 -1z"/><default:path d="M4090 4373 c-78 -12 -130 -25 -130 -32 0 -4 15 -7 34 -7 19 1 32 4 29 9 -2 4 2 7 11 7 8 0 22 3 32 7 13 5 15 3 9 -8 -7 -11 -6 -12 6 -3 24 19 69 26 69 12 0 -9 2 -10 8 -2 5 8 25 10 67 4 44 -5 51 -8 25 -9 -19 -1 -44 -6 -55 -10 -11 -5 33 -8 102 -7 68 0 123 4 123 7 0 3 12 4 28 1 15 -2 24 -1 20 3 -3 4 -21 9 -40 11 -18 2 -51 8 -73 13 -38 10 -213 13 -265 4z"/><default:path d="M1490 4356 c0 -3 9 -10 20 -16 11 -6 20 -8 20 -6 0 3 -9 10 -20 16 -11 6 -20 8 -20 6z"/><default:path d="M4580 4340 c-8 -5 -24 -7 -35 -4 -19 5 -19 4 -2 -6 14 -9 26 -8 50 4 18 8 25 16 17 16 -8 0 -22 -5 -30 -10z"/><default:path d="M1420 4326 c0 -2 7 -7 16 -10 8 -3 12 -2 9 4 -6 10 -25 14 -25 6z"/><default:path d="M1615 4318 c-51 -5 -90 -17 -150 -47 -94 -47 -138 -78 -129 -93 4 -7 2 -8 -5 -4 -6 4 -22 -3 -36 -16 -27 -25 -35 -49 -10 -28 8 7 15 9 15 6 0 -4 14 8 32 26 32 33 118 93 118 82 0 -3 7 2 16 10 8 9 20 14 25 11 5 -4 9 -1 9 6 0 8 5 8 18 -2 9 -7 14 -9 10 -5 -20 23 90 44 236 46 11 0 16 3 13 7 -9 9 -78 9 -162 1z"/><default:path d="M1478 4313 c7 -3 16 -2 19 1 4 3 -2 6 -13 5 -11 0 -14 -3 -6 -6z"/><default:path d="M4195 4310 c3 -6 -2 -10 -11 -10 -48 0 4 -10 101 -20 106 -10 218 -35 298 -66 53 -20 68 -17 27 6 -59 33 -221 80 -295 86 -38 3 -83 7 -98 9 -17 3 -26 1 -22 -5z"/><default:path d="M4460 4310 c11 -7 60 -2 60 6 0 2 -16 3 -35 2 -20 -1 -31 -4 -25 -8z"/><default:path d="M4174 4265 c11 -8 26 -15 33 -15 7 0 13 -4 13 -10 0 -5 6 -7 14 -4 8 3 28 -2 45 -11 18 -9 37 -13 43 -9 7 5 8 3 3 -6 -6 -10 -4 -12 10 -6 10 4 21 2 25 -4 6 -9 66 -21 113 -21 9 0 15 -4 13 -8 -3 -4 8 -5 25 -3 16 2 35 0 42 -5 6 -6 23 -9 36 -8 16 1 34 -8 49 -24 13 -14 20 -20 16 -12 -5 9 -3 12 5 7 6 -4 9 -12 6 -17 -4 -5 -2 -9 4 -9 24 0 18 20 -15 45 -26 20 -54 29 -107 36 -66 8 -294 64 -362 88 -28 10 -29 10 -11 -4z"/><default:path d="M3123 4255 c0 -8 4 -12 9 -9 5 3 6 10 3 15 -9 13 -12 11 -12 -6z"/><default:path d="M1525 4239 c4 -6 -36 -22 -60 -23 -5 -1 -12 -4 -15 -7 -3 -4 -30 -19 -60 -34 -30 -15 -63 -34 -72 -43 -10 -8 -18 -12 -18 -7 0 4 -7 1 -17 -6 -9 -8 -19 -14 -22 -14 -3 0 -5 -3 -4 -7 2 -5 -2 -7 -9 -5 -12 2 -61 -63 -53 -71 2 -3 29 18 58 45 61 56 166 114 265 147 63 21 65 23 35 28 -18 2 -30 1 -28 -3z"/><default:path d="M2675 4231 c-3 -5 -2 -12 3 -15 5 -3 9 1 9 9 0 17 -3 19 -12 6z"/><default:path d="M2705 4231 c-3 -5 -2 -12 3 -15 5 -3 9 1 9 9 0 17 -3 19 -12 6z"/><default:path d="M1494 4186 c-142 -58 -269 -156 -316 -243 -49 -91 -45 -101 16 -36 31 34 79 76 106 93 64 41 187 89 258 101 31 4 60 13 66 19 13 13 -44 6 -124 -16 -30 -9 -64 -17 -75 -18 -11 -2 -24 -4 -28 -5 -5 0 -5 -6 -1 -13 5 -7 3 -8 -5 -4 -7 5 -20 1 -29 -7 -27 -24 -82 -48 -92 -42 -16 10 48 58 67 51 14 -6 14 -4 2 11 -12 15 -12 16 4 10 11 -4 20 -1 24 9 7 19 58 46 68 36 5 -4 5 -1 1 6 -5 8 0 12 12 12 11 0 25 7 33 16 7 8 21 13 32 10 10 -2 16 -2 13 2 -9 9 54 33 67 25 6 -3 7 -1 3 5 -10 16 -10 16 -102 -22z m-250 -207 c-29 -30 -44 -36 -44 -18 0 5 3 8 8 6 4 -3 13 1 20 9 7 8 10 14 6 14 -3 0 -1 7 6 15 7 8 17 12 22 9 5 -3 -3 -19 -18 -35z"/><default:path d="M3313 4139 c-2 -16 0 -17 18 -1 10 9 19 17 19 17 0 0 -8 1 -18 1 -10 0 -19 -8 -19 -17z"/><default:path d="M4570 4104 c-10 -11 -9 -18 1 -31 23 -30 56 -59 103 -93 25 -18 43 -36 41 -41 -3 -4 5 -5 17 -2 16 3 19 2 10 -4 -9 -7 -5 -13 15 -24 57 -29 150 -94 196 -137 58 -55 61 -44 6 21 -24 28 -98 85 -182 141 -147 97 -237 176 -187 162 14 -4 50 -11 80 -17 30 -5 63 -12 73 -15 28 -9 19 10 -14 29 -23 13 -35 15 -45 7 -9 -8 -18 -8 -33 0 -12 6 -21 8 -21 6 0 -3 -11 -1 -24 4 -18 6 -28 5 -36 -6z"/><default:path d="M1552 4070 c-45 -16 -106 -40 -135 -53 -70 -32 -159 -96 -150 -109 3 -7 1 -8 -5 -4 -14 9 -56 -28 -93 -81 -38 -55 -37 -62 6 -24 41 36 170 98 238 114 26 7 47 15 47 19 0 10 5 10 -58 -6 -28 -8 -50 -10 -47 -6 3 5 0 12 -6 16 -8 4 -9 3 -5 -4 4 -7 2 -12 -4 -12 -6 0 -8 -4 -5 -10 3 -5 -7 -13 -22 -16 -15 -4 -38 -14 -51 -22 -12 -8 -25 -12 -28 -9 -4 3 8 15 26 25 17 11 31 23 30 26 -1 9 56 48 98 67 17 7 32 17 32 21 0 6 65 32 85 33 6 1 26 9 46 18 20 10 47 16 60 14 19 -4 25 -1 25 14 0 10 0 19 -1 19 0 0 -37 -14 -83 -30z"/><default:path d="M4774 3985 c-18 -15 -18 -15 0 -8 13 4 17 3 12 -5 -3 -6 -3 -13 2 -16 4 -2 8 6 8 20 0 13 0 24 -1 24 -1 0 -10 -7 -21 -15z"/><default:path d="M4722 3904 c12 -14 14 -24 7 -39 -10 -20 -10 -20 5 -1 15 19 22 12 17 -17 -1 -5 2 -6 7 -3 14 8 55 -41 47 -55 -6 -8 -4 -10 5 -4 9 6 10 1 5 -16 -5 -18 -4 -20 4 -9 8 12 13 12 23 2 6 -6 8 -12 3 -12 -4 0 1 -8 11 -17 25 -23 87 -103 80 -103 -3 0 -18 12 -34 28 -33 31 -72 55 -78 49 -3 -3 23 -27 58 -54 35 -27 78 -64 96 -82 103 -104 -79 157 -201 288 -45 48 -89 84 -55 45z"/><default:path d="M1355 3870 c-3 -6 1 -7 9 -4 18 7 21 14 7 14 -6 0 -13 -4 -16 -10z"/><default:path d="M4830 3836 c0 -2 8 -10 18 -17 15 -13 16 -12 3 4 -13 16 -21 21 -21 13z"/><default:path d="M4604 3752 c4 -3 14 -7 22 -8 9 -1 13 0 10 4 -4 3 -14 7 -22 8 -9 1 -13 0 -10 -4z"/><default:path d="M1257 3643 c-110 -145 -257 -386 -243 -400 4 -5 19 10 89 90 22 25 21 26 -4 20 l-20 -6 21 34 c11 19 23 42 26 51 4 10 10 16 14 13 5 -3 11 -1 15 5 4 6 12 7 18 4 8 -5 8 -3 0 7 -19 20 -16 33 5 18 14 -11 15 -11 5 1 -15 17 -17 34 -3 25 6 -3 10 1 10 10 0 10 5 13 12 9 7 -4 8 -3 4 5 -4 6 2 22 12 36 14 18 22 22 26 13 3 -7 3 -2 0 11 -4 16 -3 21 5 17 6 -4 11 -1 11 7 0 7 9 23 20 35 12 12 18 22 14 22 -3 0 -1 7 6 15 7 8 10 15 7 15 -3 0 -26 -26 -50 -57z m-182 -322 c-3 -6 -11 -11 -16 -11 -5 0 -4 6 3 14 14 16 24 13 13 -3z"/><default:path d="M4800 3684 c0 -5 17 -26 37 -48 28 -29 32 -37 16 -32 -14 5 -23 1 -27 -10 -4 -9 -4 -19 -1 -22 3 -3 5 1 5 9 0 11 2 11 9 1 4 -8 7 -25 5 -38 -2 -20 0 -23 11 -14 10 8 14 5 19 -15 4 -14 10 -25 15 -25 5 0 8 -11 7 -25 -2 -13 2 -23 8 -22 6 1 10 -9 8 -23 -1 -17 1 -21 7 -11 6 10 12 5 22 -18 8 -17 19 -33 26 -36 15 -5 -47 121 -89 183 -17 24 -27 46 -24 50 4 3 26 -13 49 -36 48 -47 64 -54 45 -18 -23 41 -148 169 -148 150z"/><default:path d="M1245 3549 c-4 -6 -5 -12 -2 -15 2 -3 7 2 10 11 7 17 1 20 -8 4z"/><default:path d="M5011 3374 c0 -11 3 -14 6 -6 3 7 2 16 -1 19 -3 4 -6 -2 -5 -13z"/><default:path d="M4930 3361 c0 -7 11 -40 24 -74 13 -34 27 -73 31 -87 4 -14 12 -28 17 -31 5 -3 10 -16 11 -27 1 -12 4 -22 8 -22 7 0 34 -66 34 -85 0 -5 4 -13 9 -16 5 -4 5 -12 1 -19 -5 -7 -15 3 -28 29 -11 23 -24 41 -28 41 -4 0 16 -51 45 -113 30 -67 52 -105 54 -94 6 33 -29 167 -65 251 -19 45 -46 112 -60 150 -24 70 -53 122 -53 97z"/><default:path d="M4983 3023 c1 -29 5 -47 9 -40 5 8 8 6 8 -6 0 -11 6 -33 14 -50 40 -94 48 -116 42 -125 -6 -11 24 -72 36 -72 4 0 -9 46 -29 103 -19 56 -46 134 -59 172 l-23 70 2 -52z"/><default:path d="M1171 2889 c0 -30 4 -63 8 -74 5 -11 6 10 3 50 -6 85 -12 98 -11 24z"/><default:path d="M832 2918 c-15 -15 -15 -28 0 -28 6 0 8 3 5 7 -4 3 -2 12 4 20 14 16 7 17 -9 1z"/><default:path d="M5031 2785 c0 -5 7 -30 16 -55 34 -94 50 -168 41 -184 -9 -15 -11 -15 -26 2 -9 10 -14 13 -10 7 3 -5 19 -48 35 -95 l28 -85 3 70 c2 49 -5 99 -22 166 -22 89 -63 198 -65 174z m66 -264 c-2 -10 0 -27 5 -37 9 -18 8 -18 -6 0 -17 21 -20 38 -9 49 11 12 15 8 10 -12z"/><default:path d="M981 2717 c-1 -10 9 -57 21 -105 l23 -87 6 70 c4 39 5 72 3 74 -2 2 -4 -3 -4 -12 0 -25 -30 -9 -31 17 0 11 -4 30 -9 41 -8 18 -9 18 -9 2z"/><default:path d="M1050 2577 c0 -107 16 -210 32 -201 12 8 10 58 -3 71 -6 6 -13 59 -16 119 -2 60 -6 110 -8 113 -3 2 -5 -43 -5 -102z"/><default:path d="M5035 2515 c15 -110 17 -182 6 -189 -6 -4 -11 -12 -11 -17 0 -6 5 -7 11 -3 9 5 10 -1 5 -22 -5 -16 -9 -37 -11 -46 -2 -10 -8 -26 -14 -35 -9 -15 -11 -14 -11 12 -1 17 -6 43 -13 58 -10 25 -12 13 -12 -81 0 -68 4 -109 10 -109 6 0 11 7 12 16 0 9 10 41 21 72 43 115 49 246 16 344 l-14 40 5 -40z"/><default:path d="M1106 2375 c5 -71 39 -188 74 -253 l19 -37 -6 115 c-3 63 -7 117 -9 119 -2 2 -4 -31 -5 -75 0 -64 -2 -74 -11 -54 -5 14 -11 30 -12 35 -1 6 -4 15 -7 20 -3 6 -11 35 -17 65 -6 30 -16 73 -22 95 -8 35 -9 31 -4 -30z"/><default:path d="M1206 2280 c13 -107 52 -275 61 -267 2 3 -3 35 -11 73 -8 38 -20 101 -27 139 -14 81 -32 122 -23 55z"/><default:path d="M5075 2232 c3 -3 0 -11 -6 -19 -6 -7 -7 -13 -3 -13 5 0 14 8 21 18 9 15 8 19 -3 19 -8 0 -12 -3 -9 -5z"/><default:path d="M1140 2121 c0 -6 4 -13 10 -16 6 -3 7 1 4 9 -7 18 -14 21 -14 7z"/><default:path d="M5025 2091 c-3 -5 -2 -12 3 -15 5 -3 9 1 9 9 0 17 -3 19 -12 6z"/><default:path d="M4990 2040 c8 -5 20 -10 25 -10 6 0 3 5 -5 10 -8 5 -19 10 -25 10 -5 0 -3 -5 5 -10z"/><default:path d="M4415 1594 c-14 -15 -25 -32 -25 -37 0 -7 3 -7 8 -1 4 5 18 21 31 37 31 35 18 36 -14 1z"/><default:path d="M4371 1558 c-1 -9 -8 -24 -17 -32 -8 -9 -11 -16 -5 -16 14 0 34 38 27 53 -2 7 -5 5 -5 -5z"/><default:path d="M4443 1363 c0 -9 4 -10 14 -2 7 6 13 12 13 14 0 1 -6 2 -13 2 -8 0 -14 -6 -14 -14z"/><default:path d="M4243 1355 c0 -8 4 -12 9 -9 5 3 6 10 3 15 -9 13 -12 11 -12 -6z"/><default:path d="M3903 1036 c12 -31 -5 -40 -25 -15 -10 13 -16 17 -13 8 4 -9 0 -23 -7 -30 -25 -27 -43 -53 -31 -46 7 4 13 0 16 -10 3 -13 5 -10 6 7 2 34 24 63 38 49 6 -6 16 -8 22 -5 15 9 14 43 -1 52 -8 5 -9 2 -5 -10z"/><default:path d="M3259 5293 c-13 -16 -12 -17 4 -4 9 7 17 15 17 17 0 8 -8 3 -21 -13z"/><default:path d="M4005 5010 c-3 -5 -1 -10 4 -10 6 0 11 5 11 10 0 6 -2 10 -4 10 -3 0 -8 -4 -11 -10z"/><default:path d="M4145 4910 c10 -11 20 -20 23 -20 3 0 -3 9 -13 20 -10 11 -20 20 -23 20 -3 0 3 -9 13 -20z"/><default:path d="M1750 4799 c0 -5 5 -7 10 -4 6 3 10 8 10 11 0 2 -4 4 -10 4 -5 0 -10 -5 -10 -11z"/><default:path d="M2730 4108 c0 -2 9 -11 20 -21 11 -9 20 -13 20 -7 0 5 -9 14 -20 20 -11 6 -20 9 -20 8z"/><default:path d="M3415 4090 c3 -5 8 -10 11 -10 2 0 4 5 4 10 0 6 -5 10 -11 10 -5 0 -7 -4 -4 -10z"/><default:path d="M2790 4050 c0 -6 7 -13 15 -16 8 -4 13 -9 11 -13 -2 -3 6 -15 17 -26 l20 -20 -13 25 c-15 30 -50 65 -50 50z"/><default:path d="M3255 4039 c-16 -10 -27 -19 -23 -19 4 0 -7 -15 -25 -33 -24 -24 -33 -28 -38 -18 -4 11 -16 5 -47 -23 -46 -42 -69 -42 -95 -2 -19 28 -54 39 -61 20 -10 -25 -31 -14 -49 26 -10 22 -28 45 -39 51 -23 12 -22 11 18 -49 12 -18 25 -51 29 -74 l7 -41 13 30 c8 17 22 36 32 42 16 8 24 4 46 -25 37 -45 67 -45 105 2 l29 35 15 -36 14 -37 12 40 c7 21 30 60 53 86 22 25 39 46 37 45 -1 0 -16 -9 -33 -20z"/><default:path d="M3313 4025 c-36 -37 -78 -103 -70 -111 3 -3 8 4 12 15 3 12 11 21 16 21 5 0 9 7 9 15 0 15 57 71 70 68 3 -1 7 5 7 13 0 19 -7 16 -44 -21z"/><default:path d="M4185 4020 c-3 -6 1 -7 9 -4 18 7 21 14 7 14 -6 0 -13 -4 -16 -10z"/><default:path d="M2021 3930 c-82 -23 -209 -88 -285 -144 -93 -71 -187 -159 -182 -172 2 -6 -1 -11 -8 -10 -20 2 -169 -190 -211 -273 -13 -25 -20 -30 -28 -22 -9 9 -9 14 -1 19 6 4 14 21 18 37 4 17 27 72 52 124 49 105 53 136 5 45 -17 -33 -35 -66 -40 -74 -5 -8 -15 -36 -21 -62 -7 -26 -16 -46 -19 -43 -12 7 -7 -43 5 -55 8 -8 17 -5 31 14 13 16 23 22 30 15 6 -6 15 -3 26 9 14 15 14 19 2 19 -8 0 -12 -4 -9 -8 2 -4 0 -10 -5 -13 -17 -11 -24 17 -8 29 10 7 17 20 17 29 0 10 4 15 9 11 5 -3 13 5 17 17 3 12 15 31 26 42 11 12 32 37 47 56 35 47 94 104 104 102 5 -2 6 2 2 8 -3 5 1 13 10 16 9 4 21 18 26 31 6 17 14 23 25 19 8 -3 12 -2 9 4 -3 5 8 16 25 25 16 8 30 19 30 23 0 4 9 13 21 20 17 11 20 11 14 0 -4 -7 3 -1 16 14 31 35 135 91 152 82 6 -4 9 -3 4 1 -11 13 65 43 153 61 46 10 137 5 201 -10 73 -17 127 -41 107 -48 -7 -3 0 -5 16 -5 15 0 31 -5 35 -10 3 -4 25 -23 49 -42 23 -18 39 -37 36 -42 -3 -5 -1 -8 3 -7 5 2 28 -16 51 -40 23 -24 46 -41 50 -38 11 7 4 115 -9 136 -6 9 -7 -9 -3 -52 5 -48 3 -68 -5 -68 -6 0 -11 5 -11 11 0 20 -111 127 -168 162 -122 75 -275 96 -411 57z"/><default:path d="M2870 3945 c0 -5 5 -17 10 -25 5 -8 10 -10 10 -5 0 6 -5 17 -10 25 -5 8 -10 11 -10 5z"/><default:path d="M2590 3915 c0 -3 7 -17 16 -30 9 -13 12 -30 8 -36 -4 -7 -3 -9 4 -5 18 11 45 -92 45 -170 -1 -115 -53 -220 -183 -369 -34 -38 -67 -79 -72 -90 -10 -19 -10 -19 8 -5 53 41 75 60 68 60 -4 0 3 11 16 25 18 19 26 22 33 13 6 -9 7 -5 4 10 -4 17 0 25 13 30 10 4 19 12 19 17 0 6 8 12 18 14 13 3 11 -5 -12 -35 -16 -22 -41 -52 -57 -68 -15 -16 -25 -33 -22 -38 3 -5 -3 -12 -15 -15 -11 -3 -18 -9 -15 -14 3 -5 -3 -6 -12 -2 -12 4 -15 3 -10 -6 9 -14 -12 -43 -25 -35 -5 3 -6 11 -3 17 4 7 3 9 -1 4 -13 -11 -14 -47 -1 -40 6 4 -36 -41 -94 -99 -58 -58 -108 -104 -112 -101 -5 2 -8 -1 -8 -6 0 -6 -21 -20 -47 -32 -112 -49 -116 -51 -243 -65 -30 -4 -61 -12 -69 -18 -11 -8 -13 -8 -7 2 9 15 1 15 -24 2 -10 -5 -32 -11 -50 -12 -17 -1 -34 -6 -36 -10 -3 -4 -11 -8 -17 -8 -8 0 -8 3 1 9 8 4 14 12 15 17 1 5 8 8 14 8 7 -1 10 3 6 9 -4 6 0 8 9 4 13 -5 14 -1 5 23 -7 19 -15 26 -26 22 -14 -5 -14 -3 -2 11 17 21 7 51 -15 43 -8 -3 -12 -2 -9 4 6 10 -13 14 -45 11 -13 -2 -13 -1 0 8 8 5 18 7 22 5 4 -3 8 0 8 5 0 6 6 11 13 12 6 0 23 14 37 32 14 17 20 28 15 25 -6 -4 -21 15 -34 43 -31 65 -45 75 -73 56 -38 -25 -118 -104 -118 -117 0 -6 -3 -9 -7 -7 -5 3 -17 0 -28 -4 -18 -9 -18 -9 3 -5 12 2 20 0 16 -5 -3 -5 -12 -9 -20 -9 -9 0 -12 -5 -8 -11 4 -8 -1 -9 -17 -4 -15 4 -19 3 -12 -2 9 -7 2 -19 -28 -46 -23 -22 -37 -42 -33 -49 5 -8 2 -9 -10 -5 -10 4 -15 3 -11 -3 3 -5 -3 -26 -13 -47 -50 -100 -62 -272 -27 -373 10 -30 23 -60 28 -67 5 -7 5 -18 1 -24 -4 -7 -3 -9 3 -6 11 7 28 -37 24 -63 -2 -13 -1 -13 8 0 8 12 11 11 17 -5 8 -21 17 -33 46 -65 9 -10 22 -28 28 -40 6 -11 15 -18 19 -15 10 6 33 -19 26 -27 -3 -3 3 -11 12 -19 16 -13 17 -12 4 4 -9 11 -10 17 -2 17 6 0 11 -3 12 -7 0 -5 2 -16 4 -26 2 -10 -2 -16 -9 -15 -6 2 -14 -1 -16 -6 -3 -5 5 -10 17 -11 12 -1 20 2 17 7 -3 4 0 8 6 8 6 0 8 5 4 12 -4 7 -3 8 5 4 6 -4 9 -11 6 -16 -3 -5 -1 -11 5 -15 6 -4 7 -12 4 -18 -5 -9 -4 -9 6 0 14 13 40 7 40 -9 0 -7 -5 -6 -14 1 -10 9 -15 8 -19 -2 -3 -9 4 -13 27 -12 17 0 31 -5 31 -12 0 -6 4 -15 9 -20 5 -5 6 -2 1 7 -4 8 2 5 13 -7 12 -12 29 -24 39 -27 10 -3 23 -17 29 -30 10 -21 8 -28 -12 -47 -13 -12 -24 -27 -24 -33 0 -6 32 -42 72 -81 39 -38 66 -61 60 -50 -6 11 -35 44 -66 73 -31 29 -56 56 -55 60 1 17 70 64 85 58 14 -5 14 -9 3 -23 -8 -9 -27 -22 -44 -29 -23 -10 -26 -13 -10 -14 30 0 107 -83 107 -114 1 -14 2 -26 4 -26 7 0 27 54 25 66 -1 7 8 14 19 17 11 3 20 12 20 21 0 21 -1 21 65 -18 32 -20 63 -32 72 -29 11 4 14 2 9 -5 -5 -8 -1 -10 10 -5 12 4 15 3 10 -6 -4 -6 -4 -11 1 -10 21 3 54 -15 49 -27 -8 -20 11 -27 36 -13 16 9 23 9 26 0 2 -6 13 -11 25 -12 20 -1 20 -2 -3 -10 -20 -7 -17 -7 13 -3 21 3 44 1 50 -4 7 -5 30 -15 52 -22 22 -7 45 -15 50 -19 6 -3 21 -4 35 -3 20 2 22 1 10 -7 -11 -8 -6 -11 25 -11 22 0 53 -7 68 -15 15 -8 40 -14 55 -13 28 1 163 -24 197 -37 17 -6 17 -5 5 5 -12 9 -8 10 20 4 64 -13 84 -14 230 -15 91 0 138 -3 125 -9 -13 -6 -15 -9 -5 -9 8 0 23 6 33 14 11 7 24 12 30 9 12 -4 223 28 282 42 17 4 46 8 65 8 19 1 38 5 41 10 4 4 22 10 40 12 18 2 36 9 40 15 4 7 16 8 29 4 13 -4 20 -3 17 2 -8 12 59 34 81 26 15 -4 15 -3 2 6 -12 9 -10 11 13 11 15 0 27 5 27 11 0 7 10 9 26 5 15 -4 23 -3 20 3 -7 11 22 23 36 14 7 -4 8 -1 3 7 -6 10 -4 12 8 7 10 -4 17 -1 17 6 0 7 9 14 20 15 11 1 29 3 40 4 10 1 17 4 15 6 -11 11 44 44 75 46 8 1 14 7 12 14 -2 10 2 10 18 2 16 -8 20 -8 18 2 -2 7 5 12 15 12 14 -2 15 1 7 11 -9 10 -7 13 7 11 10 -2 20 0 23 3 19 24 74 60 82 55 6 -4 8 -2 5 3 -4 6 7 16 23 23 18 7 27 17 23 24 -4 6 1 5 11 -3 12 -10 16 -11 14 -2 -2 7 12 24 31 39 23 18 33 21 29 11 -3 -9 -1 -16 6 -16 6 0 12 8 12 18 0 10 -4 15 -8 13 -4 -3 -8 -2 -8 3 1 11 80 69 91 66 4 -2 6 3 3 10 -3 8 13 28 35 46 22 18 40 36 39 40 -3 15 15 40 25 34 6 -3 7 -1 3 6 -4 6 1 23 12 39 49 71 52 86 50 263 -2 92 -5 166 -7 163 -6 -5 -50 48 -57 69 -3 9 -10 17 -15 17 -5 0 -9 8 -7 17 2 10 -1 18 -7 18 -22 3 -64 28 -59 37 3 5 2 7 -3 6 -15 -5 -122 45 -116 55 3 5 -4 6 -18 2 -13 -4 -21 -4 -17 0 5 5 -6 17 -23 27 -24 15 -34 16 -39 7 -4 -6 -13 -8 -19 -5 -6 4 -11 4 -10 -1 4 -25 -3 -39 -22 -40 -16 -2 -18 1 -10 11 6 7 7 17 3 21 -4 5 -2 5 4 2 7 -4 17 6 24 23 7 17 17 33 22 36 6 4 4 -4 -2 -17 -9 -18 -9 -21 -1 -13 12 11 18 32 20 61 1 8 8 10 19 6 15 -6 15 -5 4 10 -8 9 -10 22 -6 29 10 16 12 158 2 152 -4 -3 -8 1 -8 8 0 18 -27 55 -34 47 -4 -3 1 -22 9 -42 21 -52 19 -143 -6 -197 -25 -55 -81 -115 -133 -142 -123 -63 -296 -8 -355 115 -24 49 -29 165 -9 185 9 9 9 14 0 22 -6 6 -10 7 -7 4 9 -13 -16 -33 -33 -27 -10 3 -13 1 -7 -4 6 -4 11 -19 13 -33 2 -18 0 -21 -6 -11 -7 10 -9 5 -7 -18 1 -17 5 -34 9 -38 13 -14 6 -32 -11 -26 -15 6 -16 5 -3 -9 8 -9 19 -14 23 -11 5 3 7 -1 6 -8 -4 -17 19 -60 38 -74 8 -6 15 -17 16 -25 4 -26 17 -39 32 -34 7 3 19 -3 26 -14 7 -12 19 -18 27 -14 11 4 13 1 7 -8 -5 -9 -4 -11 3 -6 6 4 20 2 31 -4 26 -13 139 -15 171 -2 48 20 65 25 73 23 5 -1 6 3 2 9 -4 6 6 9 28 8 18 -2 34 -8 34 -15 0 -6 -7 -9 -15 -5 -10 3 -13 1 -8 -6 3 -6 -2 -17 -12 -24 -10 -7 -25 -24 -32 -38 -13 -24 -12 -24 22 5 20 17 47 50 60 75 18 33 30 44 43 42 23 -4 66 -37 59 -44 -2 -3 22 -15 55 -28 80 -29 131 -69 177 -135 38 -56 38 -56 42 -176 8 -207 -30 -293 -201 -456 -264 -251 -680 -443 -1107 -509 -159 -25 -481 -25 -640 -1 -330 51 -653 174 -928 355 -229 150 -371 293 -446 451 -28 60 -31 74 -30 161 1 52 9 127 18 165 44 182 122 264 252 265 37 1 38 1 16 13 -12 7 -21 15 -20 18 2 2 -1 1 -6 -3 -5 -3 -15 -4 -24 -1 -10 4 -13 2 -8 -5 5 -8 2 -10 -8 -6 -9 3 -16 1 -16 -5 0 -6 -4 -11 -10 -11 -21 0 -9 22 33 63 55 53 98 89 101 85 1 -2 15 -27 30 -57 l27 -53 -22 -24 c-12 -13 -32 -24 -43 -24 -23 0 -106 -38 -106 -49 0 -4 16 -5 35 -3 43 5 125 -6 125 -17 0 -5 -13 -14 -30 -21 -16 -7 -35 -19 -41 -27 -11 -12 -8 -13 17 -8 66 14 74 15 74 8 -1 -5 -15 -17 -33 -28 -34 -21 -97 -107 -97 -132 0 -9 9 -6 27 12 56 51 95 63 328 100 167 26 223 59 385 223 204 207 290 332 325 467 31 120 12 255 -49 360 -24 41 -36 54 -36 40z m20 -516 c0 -6 -4 -7 -10 -4 -5 3 -10 11 -10 16 0 6 5 7 10 4 6 -3 10 -11 10 -16z m1290 -459 c0 -5 -2 -10 -4 -10 -3 0 -8 5 -11 10 -3 6 -1 10 4 10 6 0 11 -4 11 -10z m-2545 -195 c-8 -27 -14 -41 -14 -29 -1 21 19 88 24 82 2 -2 -3 -25 -10 -53z m-18 -87 c-3 -7 -5 -2 -5 12 0 14 2 19 5 13 2 -7 2 -19 0 -25z m455 -702 c7 4 8 2 4 -5 -9 -13 -26 -5 -25 12 0 9 2 8 6 -1 2 -6 10 -9 15 -6z m81 -64 c-2 -6 4 -9 12 -6 11 5 13 2 9 -10 -3 -9 -10 -16 -16 -16 -5 0 -6 -4 -3 -10 9 -14 -17 -12 -37 4 -21 16 -23 27 -6 44 15 15 44 11 41 -6z m62 -22 c4 -6 -5 -27 -20 -46 -21 -28 -30 -33 -41 -23 -12 10 -10 17 14 44 29 36 37 40 47 25z m265 -140 c-8 -5 -19 -10 -25 -10 -5 0 -3 5 5 10 8 5 20 10 25 10 6 0 3 -5 -5 -10z m397 -116 c-3 -3 -12 -4 -19 -1 -8 3 -5 6 6 6 11 1 17 -2 13 -5z"/><default:path d="M2881 3884 c0 -11 3 -14 6 -6 3 7 2 16 -1 19 -3 4 -6 -2 -5 -13z"/><default:path d="M2896 3864 c-8 -20 -8 -24 2 -24 4 0 8 9 9 20 2 24 -3 26 -11 4z"/><default:path d="M3105 3871 c-3 -5 -2 -12 3 -15 5 -3 9 1 9 9 0 17 -3 19 -12 6z"/><default:path d="M2697 3851 c-4 -17 -3 -21 5 -13 5 5 8 16 6 23 -3 8 -7 3 -11 -10z"/><default:path d="M4406 3848 c3 -5 10 -6 15 -3 13 9 11 12 -6 12 -8 0 -12 -4 -9 -9z"/><default:path d="M3825 3805 c-123 -27 -195 -72 -294 -187 -31 -35 -32 -39 -17 -60 11 -16 16 -18 16 -7 0 8 -5 20 -10 25 -8 8 -6 15 5 24 13 11 18 10 30 -6 8 -10 15 -14 15 -7 0 6 -5 15 -10 18 -16 10 29 45 48 38 14 -5 15 -3 5 8 -33 34 10 48 45 14 13 -14 30 -25 36 -25 6 1 -4 14 -23 30 -29 25 -32 31 -21 45 12 14 15 14 35 -5 12 -11 28 -20 36 -20 9 1 7 5 -6 12 -30 16 -30 16 -10 38 14 15 22 17 37 9 13 -7 17 -16 13 -27 -5 -14 -4 -15 6 -4 10 9 10 15 1 24 -7 7 -12 17 -12 24 0 15 71 24 88 11 9 -7 11 -5 6 8 -6 16 -3 17 30 11 21 -4 45 -10 54 -13 15 -4 15 -3 2 6 -13 9 -12 11 5 11 11 0 47 -5 80 -11 33 -6 68 -11 78 -11 10 1 15 -4 11 -10 -4 -7 -2 -8 5 -4 13 9 171 -65 191 -89 7 -9 27 -23 42 -31 25 -13 28 -18 17 -32 -11 -14 -11 -15 1 -4 17 15 34 16 25 2 -4 -6 -1 -9 7 -8 7 2 12 -3 10 -10 -1 -8 2 -11 8 -7 14 9 13 -8 -2 -25 -11 -12 -10 -12 5 0 25 19 46 -2 27 -27 -12 -15 -12 -16 0 -5 17 15 34 16 25 2 -4 -6 -2 -9 3 -8 13 4 64 -60 57 -72 -3 -5 0 -7 9 -4 15 6 40 -28 41 -56 0 -8 6 -14 13 -12 7 1 16 -8 21 -20 5 -13 18 -31 30 -42 11 -10 18 -23 15 -27 -3 -5 0 -9 5 -9 6 0 11 -5 11 -11 0 -6 7 -17 15 -26 10 -9 13 -24 10 -37 -5 -16 -4 -18 4 -7 8 12 11 10 16 -12 4 -15 11 -27 17 -27 5 0 8 -7 6 -16 -2 -10 4 -18 14 -19 15 -3 14 3 -8 47 -75 148 -171 277 -297 400 -137 135 -282 213 -434 237 -88 13 -111 13 -188 -4z"/><default:path d="M2706 3787 c3 -10 9 -15 12 -12 3 3 0 11 -7 18 -10 9 -11 8 -5 -6z"/><default:path d="M3499 3748 c-6 -89 -5 -148 2 -141 10 11 16 163 7 163 -5 0 -9 -10 -9 -22z"/><default:path d="M1424 3727 c1 -12 -3 -26 -9 -30 -6 -5 -5 -7 4 -5 15 4 23 46 11 53 -4 3 -7 -6 -6 -18z"/><default:path d="M2847 3631 c-15 -212 -66 -340 -179 -453 -37 -38 -65 -68 -62 -68 3 0 32 20 65 46 32 25 78 54 102 64 66 30 176 42 266 31 163 -21 261 -68 359 -170 l63 -66 -51 65 c-83 106 -117 230 -105 380 6 82 19 165 31 204 4 11 2 16 -4 12 -10 -6 -16 -30 -33 -126 -20 -115 -8 -282 26 -362 5 -13 -9 -9 -62 17 -93 45 -184 66 -296 66 -90 0 -109 -4 -212 -47 -17 -7 -16 -2 9 40 61 104 100 272 94 401 -3 69 -3 69 -11 -34z"/><default:path d="M3782 3700 c0 -14 2 -19 5 -12 2 6 2 18 0 25 -3 6 -5 1 -5 -13z"/><default:path d="M1373 3602 c-17 -26 -42 -69 -56 -97 -29 -60 -79 -196 -74 -202 5 -5 37 61 37 77 0 6 4 8 10 5 5 -3 7 0 4 9 -7 18 25 88 37 80 5 -3 9 -1 9 5 0 6 16 44 36 86 20 42 34 78 32 80 -2 2 -18 -17 -35 -43z"/><default:path d="M2289 3581 c6 -10 7 -22 3 -26 -4 -5 -1 -5 6 -1 9 5 9 12 2 27 -6 10 -13 19 -16 19 -2 0 0 -8 5 -19z"/><default:path d="M2260 3581 c0 -6 4 -13 10 -16 6 -3 7 1 4 9 -7 18 -14 21 -14 7z"/><default:path d="M3020 3520 c-15 -46 -36 -85 -62 -115 -47 -54 -80 -59 -102 -17 l-15 27 -1 -27 c0 -34 23 -47 66 -38 35 8 94 59 94 82 1 7 8 2 16 -12 14 -24 15 -24 11 -2 -3 12 -2 22 3 22 9 0 25 138 17 146 -2 3 -14 -27 -27 -66z"/><default:path d="M3095 3544 c-24 -57 -55 -147 -55 -159 0 -5 10 4 21 20 18 25 20 27 16 7 -3 -12 -1 -20 3 -17 5 3 13 -10 19 -28 6 -18 22 -41 36 -51 13 -10 23 -21 21 -25 -6 -9 101 -7 110 2 5 4 0 5 -9 1 -15 -6 -15 -1 5 32 l22 39 -31 -32 c-17 -18 -39 -33 -48 -33 -35 0 -75 34 -92 78 -14 38 -15 55 -6 121 6 42 10 78 8 80 -2 2 -11 -14 -20 -35z"/><default:path d="M3540 3535 c1 -6 7 -21 15 -35 14 -24 15 -24 12 -2 -3 22 -27 55 -27 37z"/><default:path d="M3500 3511 c0 -6 4 -13 10 -16 6 -3 7 1 4 9 -7 18 -14 21 -14 7z"/><default:path d="M3770 3496 c7 -7 13 -7 20 0 6 6 3 10 -10 10 -13 0 -16 -4 -10 -10z"/><default:path d="M4621 3464 c0 -11 3 -14 6 -6 3 7 2 16 -1 19 -3 4 -6 -2 -5 -13z"/><default:path d="M3545 3459 c-4 -6 -5 -12 -2 -15 2 -3 7 2 10 11 7 17 1 20 -8 4z"/><default:path d="M1775 3439 c-4 -6 -14 -8 -22 -4 -14 5 -14 3 -2 -12 8 -9 9 -14 3 -10 -16 9 -47 -40 -50 -78 -1 -16 -5 -53 -7 -80 -4 -34 -1 -56 9 -70 16 -22 19 -39 4 -30 -6 3 -7 -1 -4 -9 3 -9 11 -16 17 -16 6 0 8 -3 4 -6 -3 -4 0 -13 8 -20 8 -8 12 -21 8 -30 -3 -8 -1 -14 4 -12 6 2 19 -6 29 -17 11 -12 15 -14 9 -5 -8 13 -7 13 5 2 8 -7 15 -18 15 -25 0 -7 5 -12 12 -12 6 0 15 -4 20 -9 5 -5 2 -6 -7 -2 -8 4 -6 1 4 -8 10 -8 23 -13 27 -10 5 3 22 -2 38 -11 34 -17 176 -21 186 -5 3 5 12 7 19 4 7 -3 19 2 26 11 7 8 17 15 22 15 5 0 19 10 32 23 13 12 32 28 42 35 11 7 12 10 4 6 -12 -6 -12 -4 1 12 21 25 49 83 49 101 0 9 5 11 13 7 9 -6 9 -5 -1 8 -7 8 -11 24 -11 34 4 34 -1 52 -13 57 -10 3 -13 -13 -14 -62 0 -73 -14 -108 -65 -159 -129 -131 -343 -98 -433 68 -52 96 -44 220 20 295 14 17 23 23 21 15 -54 -151 -45 -232 37 -318 66 -71 150 -94 241 -68 100 30 180 136 160 213 -7 25 -8 26 -15 8 -4 -11 -5 -26 -3 -32 3 -7 0 -13 -7 -13 -7 0 -9 -8 -5 -19 3 -11 0 -23 -6 -27 -8 -4 -9 -3 -5 4 5 8 1 10 -9 5 -13 -5 -14 -7 -3 -14 11 -7 10 -11 -2 -19 -8 -5 -11 -10 -7 -10 5 0 -6 -12 -24 -27 -18 -16 -41 -27 -51 -27 -10 1 -15 -2 -13 -6 3 -4 -4 -10 -15 -13 -11 -3 -20 0 -20 5 0 7 -4 7 -12 1 -18 -15 -80 -15 -72 -1 5 7 1 9 -9 5 -10 -4 -29 -2 -43 3 -23 9 -25 13 -13 28 11 14 11 15 -1 5 -18 -16 -34 -17 -24 -1 4 6 3 8 -3 5 -14 -9 -47 29 -37 44 4 7 3 10 -3 6 -16 -10 -36 20 -37 56 -1 18 -5 38 -10 45 -4 7 -2 20 6 29 10 13 10 15 0 9 -10 -6 -11 -1 -7 21 11 49 14 55 27 47 8 -5 7 0 -2 11 -14 17 -13 18 5 11 16 -6 17 -5 8 5 -10 10 -9 15 5 26 15 11 15 12 1 7 -10 -3 -20 -1 -24 5 -3 6 -10 11 -15 11 -5 0 -12 -5 -15 -11z"/><default:path d="M1975 3426 c-18 -18 -26 -21 -36 -12 -9 8 -10 8 -5 -2 4 -7 2 -20 -6 -29 -11 -14 -11 -16 2 -8 11 6 10 3 -2 -12 -20 -21 -25 -98 -8 -108 6 -4 8 -10 5 -15 -6 -10 56 -57 87 -65 30 -8 101 10 121 30 8 8 17 12 19 9 3 -2 13 5 23 16 29 32 24 112 -11 158 -16 20 -28 41 -26 46 2 5 -3 4 -11 -2 -11 -10 -17 -9 -27 3 -21 25 -96 20 -125 -9z m119 -10 c50 -21 76 -60 76 -115 0 -25 -5 -53 -11 -61 -7 -11 -8 -2 -3 31 13 95 -51 156 -149 144 -31 -4 -37 -3 -22 4 29 14 71 13 109 -3z m-19 -16 c59 -23 87 -88 60 -143 -18 -40 -50 -57 -104 -57 -42 0 -85 36 -96 81 -10 40 18 97 57 114 40 17 49 18 83 5z"/><default:path d="M1970 3276 c0 -2 8 -10 18 -17 15 -13 16 -12 3 4 -13 16 -21 21 -21 13z"/><default:path d="M1562 3394 c-7 -8 -8 -14 -3 -14 10 0 25 19 20 25 -2 1 -10 -3 -17 -11z"/><default:path d="M4089 3365 c-4 -3 -20 -7 -35 -9 -22 -3 -28 -8 -28 -27 0 -13 -9 -32 -19 -42 -15 -15 -18 -29 -13 -75 7 -73 8 -83 14 -78 2 3 16 -6 30 -20 26 -23 51 -30 102 -25 32 3 80 32 73 44 -3 6 -1 7 5 3 17 -10 58 35 54 59 -11 72 -27 108 -58 129 -19 13 -32 25 -29 28 3 2 -1 5 -7 6 -7 0 -29 4 -48 7 -19 4 -38 4 -41 0z m19 -26 c44 2 58 -1 87 -23 18 -14 39 -42 45 -62 13 -37 6 -104 -11 -104 -5 0 -7 12 -3 28 4 15 7 29 6 32 0 41 -7 57 -37 87 -35 35 -38 36 -95 30 -46 -4 -60 -2 -64 10 -4 9 -2 11 7 6 6 -4 36 -6 65 -4z m78 -42 c21 -18 27 -34 31 -73 4 -52 -3 -67 -47 -97 -41 -28 -87 -22 -126 17 -49 49 -45 114 10 158 31 26 99 23 132 -5z"/><default:path d="M4036 3214 c-5 -14 -4 -15 9 -4 17 14 19 20 6 20 -5 0 -12 -7 -15 -16z"/><default:path d="M2443 3346 c3 -7 0 -20 -6 -27 -10 -11 -9 -11 5 0 15 11 15 41 1 41 -3 0 -3 -6 0 -14z"/><default:path d="M4216 3338 c3 -5 10 -6 15 -3 13 9 11 12 -6 12 -8 0 -12 -4 -9 -9z"/><default:path d="M2996 3324 c-11 -7 -16 -17 -11 -21 4 -5 10 -2 12 5 7 18 30 15 42 -5 6 -10 11 -13 11 -7 0 6 -8 18 -17 27 -16 13 -21 14 -37 1z"/><default:path d="M2613 3304 c1 -22 24 -30 24 -8 0 7 -4 11 -8 8 -4 -2 -9 2 -12 8 -3 7 -5 4 -4 -8z"/><default:path d="M4300 3312 c0 -5 7 -9 15 -9 8 0 15 4 15 9 0 4 -7 8 -15 8 -8 0 -15 -4 -15 -8z"/><default:path d="M1366 3298 c3 -5 10 -6 15 -3 13 9 11 12 -6 12 -8 0 -12 -4 -9 -9z"/><default:path d="M2830 3301 c0 -10 19 -25 25 -20 1 2 -3 10 -11 17 -8 7 -14 8 -14 3z"/><default:path d="M2505 3289 c-4 -6 -5 -12 -2 -15 2 -3 7 2 10 11 7 17 1 20 -8 4z"/><default:path d="M4296 3233 c0 -32 -4 -64 -10 -72 -8 -11 -8 -13 2 -7 15 9 15 1 1 -25 -6 -11 -15 -17 -22 -12 -9 5 -9 4 0 -8 8 -9 9 -20 3 -29 -6 -8 -10 -11 -10 -5 0 5 -8 -2 -17 -15 -10 -14 -17 -28 -16 -32 2 -4 -5 -4 -14 -1 -10 4 -14 2 -9 -5 5 -9 -13 -20 -46 -28 -5 -1 -9 -3 -10 -4 -7 -7 -90 -5 -94 2 -3 4 -13 8 -22 8 -15 0 -15 -2 -2 -10 8 -5 11 -10 6 -10 -5 0 -18 8 -29 18 -11 9 -17 11 -13 5 5 -9 2 -11 -8 -7 -13 5 -13 10 -4 27 10 20 10 21 -6 8 -15 -13 -20 -11 -44 15 -15 16 -26 32 -25 36 2 5 -2 8 -7 8 -5 0 -9 3 -8 8 1 4 -4 33 -11 64 -7 32 -10 62 -6 68 3 5 2 10 -3 10 -23 0 -28 -61 -12 -121 13 -46 79 -121 125 -144 46 -21 140 -21 192 0 102 43 167 163 148 275 -10 62 -30 50 -29 -17z"/><default:path d="M3444 3260 c0 -13 4 -16 10 -10 7 7 7 13 0 20 -6 6 -10 3 -10 -10z"/><default:path d="M3614 3269 c-4 -7 -3 -9 4 -5 6 3 15 -2 21 -11 6 -10 11 -13 11 -7 0 20 -27 37 -36 23z"/><default:path d="M4750 3255 c0 -22 16 -89 30 -120 4 -11 11 -29 14 -39 4 -10 9 -16 12 -14 6 7 -21 113 -41 159 -10 24 -14 28 -15 14z"/><default:path d="M4506 3227 c3 -10 9 -15 12 -12 3 3 0 11 -7 18 -10 9 -11 8 -5 -6z"/><default:path d="M3080 3210 c8 -5 20 -10 25 -10 6 0 3 5 -5 10 -8 5 -19 10 -25 10 -5 0 -3 -5 5 -10z"/><default:path d="M2825 3166 c-125 -25 -211 -65 -287 -134 -78 -71 -97 -152 -55 -233 13 -24 40 -76 61 -116 47 -90 152 -193 240 -234 131 -61 272 -61 401 0 77 36 190 143 223 213 13 25 30 52 38 59 22 18 50 77 58 121 9 52 -22 114 -93 181 -66 64 -148 107 -244 131 -94 24 -255 29 -342 12z m385 -45 c36 -12 76 -30 90 -39 14 -9 28 -16 32 -15 3 2 12 -5 20 -15 12 -15 11 -16 -4 -3 -10 7 -18 10 -18 6 0 -4 -7 -2 -15 5 -9 7 -18 10 -21 7 -3 -3 18 -21 48 -40 29 -19 61 -43 70 -53 52 -59 40 -127 -24 -132 -68 -6 -103 65 -58 113 25 26 19 44 -21 74 -33 25 -51 22 -25 -4 17 -17 22 -40 8 -31 -5 3 -9 -1 -9 -9 0 -12 4 -12 19 2 15 14 19 14 16 3 -2 -8 -11 -21 -20 -28 -17 -12 -18 -42 -4 -75 5 -10 3 -23 -3 -31 -9 -11 -8 -14 6 -12 10 0 18 -4 18 -11 0 -6 4 -15 9 -20 5 -5 6 -3 2 5 -10 17 5 15 32 -4 17 -12 22 -12 22 -2 0 10 2 10 9 -1 6 -9 11 -10 15 -2 4 6 12 8 18 5 7 -4 8 -2 4 4 -4 7 -2 12 4 12 6 0 20 19 31 43 11 23 17 34 15 25 -3 -10 0 -18 7 -18 9 0 9 -2 0 -8 -7 -5 -9 -13 -3 -21 15 -25 -10 -72 -46 -87 -49 -20 -74 -17 -105 12 -41 39 -116 56 -177 40 -63 -16 -92 -44 -99 -95 -5 -35 -2 -44 24 -70 54 -53 141 -54 171 -1 15 27 22 30 67 30 28 0 60 3 73 6 37 10 26 -12 -43 -85 -96 -101 -162 -124 -232 -81 -26 15 -33 17 -33 5 0 -21 25 -34 77 -39 62 -7 23 -29 -87 -50 -62 -12 -185 -7 -211 9 -5 4 -22 9 -36 11 -15 3 -30 10 -34 15 -3 6 -10 11 -15 12 -20 2 -64 33 -64 44 0 8 -7 10 -17 6 -10 -3 -15 -3 -11 2 4 4 -4 16 -17 27 -14 11 -25 26 -25 33 0 8 -11 21 -24 30 -12 8 -32 32 -42 53 -10 20 -23 40 -29 44 -5 4 -6 8 -1 8 4 0 -4 17 -20 37 -35 47 -46 138 -20 178 9 14 13 25 9 25 -3 0 8 13 27 30 38 34 44 33 34 -4 -4 -17 -11 -25 -20 -22 -7 3 -16 1 -18 -3 -3 -5 5 -8 17 -7 12 1 30 -9 40 -21 10 -13 25 -23 33 -23 8 0 14 -4 14 -9 0 -5 10 -7 22 -3 14 3 19 2 14 -6 -5 -8 2 -12 21 -13 61 -3 115 -18 107 -31 -4 -7 -2 -8 4 -4 15 9 55 -18 44 -29 -4 -5 -1 -5 6 -1 16 10 38 -8 68 -56 21 -33 24 -50 24 -133 0 -54 -4 -94 -9 -91 -11 7 -23 -22 -16 -35 4 -5 -2 -6 -12 -2 -17 6 -17 6 0 -14 14 -16 15 -22 5 -27 -7 -3 1 -3 17 0 17 3 25 2 18 -3 -6 -4 13 -7 45 -6 32 1 69 2 83 3 15 0 29 7 32 15 5 11 1 12 -16 6 -12 -5 -55 -6 -94 -4 l-72 6 14 28 c47 89 39 206 -19 282 -41 54 -105 88 -214 116 -48 12 -94 28 -101 36 -19 19 -22 102 -4 116 7 6 13 8 13 3 0 -5 4 -3 9 5 6 9 11 10 15 2 4 -6 -4 -13 -19 -17 -14 -3 -25 -11 -25 -16 0 -5 3 -8 8 -6 216 109 252 119 412 114 97 -2 139 -8 190 -25z m-510 -31 c-24 -15 -37 -11 -16 5 11 8 22 12 25 9 3 -3 -1 -9 -9 -14z m520 -295 c9 -6 11 -4 5 5 -6 10 -4 12 11 6 10 -4 27 -9 36 -11 9 -2 31 -16 48 -32 18 -15 40 -27 51 -25 10 2 27 -1 36 -7 16 -9 15 -11 -10 -20 -36 -14 -53 -14 -80 1 -20 10 -21 10 -8 -5 11 -15 11 -17 -2 -17 -9 0 -19 4 -22 10 -4 6 -13 5 -25 -2 -10 -7 -16 -16 -13 -22 4 -5 -1 -7 -12 -2 -15 5 -16 4 -5 -9 11 -14 7 -19 -12 -16 -5 0 -8 -4 -8 -10 0 -8 -15 -10 -46 -6 -35 4 -53 12 -74 36 -16 17 -25 33 -20 36 4 3 10 0 12 -7 3 -7 7 -5 11 6 4 10 3 15 -3 11 -23 -14 -21 27 1 52 38 40 91 52 129 28z m217 -51 c-3 -3 -12 -4 -19 -1 -8 3 -5 6 6 6 11 1 17 -2 13 -5z m-809 -149 c-3 -3 -9 2 -12 12 -6 14 -5 15 5 6 7 -7 10 -15 7 -18z"/><default:path d="M2917 3108 c-110 -29 -132 -149 -38 -211 23 -15 43 -22 46 -17 3 6 0 10 -7 10 -7 0 -28 13 -46 28 -25 20 -35 38 -39 69 -5 35 -2 45 24 72 20 21 46 34 81 42 29 6 52 13 52 15 0 6 -31 3 -73 -8z"/><default:path d="M3045 3104 c17 -7 35 -13 40 -14 18 0 65 -50 71 -75 3 -14 4 -34 1 -45 -3 -11 -1 -23 4 -26 13 -7 11 56 -2 95 -6 17 -17 31 -25 31 -8 0 -14 4 -14 10 0 5 -11 12 -25 16 -14 3 -25 9 -25 13 0 3 -12 7 -28 7 l-27 1 30 -13z"/><default:path d="M3120 2915 c-14 -15 -40 -28 -62 -31 -21 -4 -35 -10 -33 -15 6 -9 82 16 109 36 10 7 16 19 14 25 -2 6 -14 0 -28 -15z"/><default:path d="M2940 2870 c-12 -8 -10 -9 7 -7 12 2 26 6 29 10 11 11 -19 8 -36 -3z"/><default:path d="M3015 2740 c-3 -5 -1 -10 4 -10 6 0 11 5 11 10 0 6 -2 10 -4 10 -3 0 -8 -4 -11 -10z"/><default:path d="M3007 2700 c3 -11 7 -20 9 -20 2 0 4 9 4 20 0 11 -4 20 -9 20 -5 0 -7 -9 -4 -20z"/><default:path d="M3310 2630 c-9 -6 -10 -10 -3 -10 6 0 15 5 18 10 8 12 4 12 -15 0z"/><default:path d="M3190 2580 c-9 -6 -10 -10 -3 -10 6 0 15 5 18 10 8 12 4 12 -15 0z"/><default:path d="M3239 2727 c6 -8 7 -18 3 -22 -4 -5 -1 -5 6 -1 10 6 10 11 1 22 -6 8 -14 14 -16 14 -3 0 0 -6 6 -13z"/><default:path d="M2510 3166 c0 -2 7 -7 16 -10 8 -3 12 -2 9 4 -6 10 -25 14 -25 6z"/><default:path d="M4575 3150 c-3 -5 -5 -10 -3 -11 33 -8 38 -7 27 7 -14 17 -16 17 -24 4z"/><default:path d="M1780 3115 c28 -38 75 -78 116 -96 62 -28 157 -28 217 1 26 12 50 26 53 31 3 5 -17 -3 -44 -16 -100 -50 -221 -28 -311 58 -25 23 -39 33 -31 22z"/><default:path d="M2486 3097 c3 -10 9 -15 12 -12 3 3 0 11 -7 18 -10 9 -11 8 -5 -6z"/><default:path d="M2401 3057 c-8 -10 -7 -14 2 -14 8 0 14 6 14 14 0 7 -1 13 -2 13 -2 0 -8 -6 -14 -13z"/><default:path d="M2501 3054 c0 -11 3 -14 6 -6 3 7 2 16 -1 19 -3 4 -6 -2 -5 -13z"/><default:path d="M3505 3029 c-4 -6 -5 -12 -2 -15 2 -3 7 2 10 11 7 17 1 20 -8 4z"/><default:path d="M4157 3023 c3 -7 6 -13 8 -13 2 0 5 6 8 13 3 8 -1 14 -8 14 -7 0 -11 -6 -8 -14z"/><default:path d="M4249 2995 c-91 -86 -227 -87 -334 -3 -22 18 -34 24 -26 14 15 -18 101 -80 101 -72 0 2 19 -2 43 -9 77 -23 177 8 241 75 46 47 26 44 -25 -5z"/><default:path d="M4750 3016 c0 -8 4 -17 9 -20 5 -4 7 3 4 14 -6 23 -13 26 -13 6z"/><default:path d="M1778 3003 c8 -14 9 -24 2 -28 -5 -3 -10 -1 -10 6 0 7 -3 10 -6 6 -13 -13 7 -27 25 -17 12 6 22 5 29 -2 7 -7 12 -10 12 -7 0 2 -14 17 -32 34 -24 23 -29 25 -20 8z"/><default:path d="M4128 3013 c7 -3 16 -2 19 1 4 3 -2 6 -13 5 -11 0 -14 -3 -6 -6z"/><default:path d="M3611 2977 c-8 -10 -7 -14 2 -14 8 0 14 6 14 14 0 7 -1 13 -2 13 -2 0 -8 -6 -14 -13z"/><default:path d="M3851 2964 c0 -11 3 -14 6 -6 3 7 2 16 -1 19 -3 4 -6 -2 -5 -13z"/><default:path d="M2165 2930 c-3 -6 1 -7 9 -4 18 7 21 14 7 14 -6 0 -13 -4 -16 -10z"/><default:path d="M1469 2928 c0 -2 -2 -13 -5 -26 -2 -12 -13 -48 -24 -79 -20 -58 -29 -123 -10 -78 11 27 45 148 45 160 0 6 5 13 10 17 6 5 5 8 -2 8 -7 0 -13 -1 -14 -2z"/><default:path d="M2265 2921 c-6 -11 13 -26 22 -17 4 3 1 6 -6 6 -7 0 -9 5 -6 10 3 6 4 10 1 10 -3 0 -7 -4 -11 -9z"/><default:path d="M3706 2922 c-3 -5 4 -18 17 -28 21 -19 21 -19 7 0 -8 11 -13 21 -12 23 2 3 1 7 -1 9 -3 3 -8 1 -11 -4z"/><default:path d="M3765 2869 c-4 -6 -5 -12 -2 -15 2 -3 7 2 10 11 7 17 1 20 -8 4z"/><default:path d="M1620 2856 c0 -2 8 -10 18 -17 15 -13 16 -12 3 4 -13 16 -21 21 -21 13z"/><default:path d="M2421 2823 c-29 -60 -51 -163 -51 -246 0 -91 17 -117 76 -117 l36 0 -23 19 c-18 14 -27 16 -37 9 -7 -6 -13 -9 -15 -7 -22 39 -26 54 -22 91 3 24 7 67 9 96 3 29 16 75 29 102 14 28 21 47 16 44 -12 -7 -11 3 1 27 6 10 8 19 6 19 -3 0 -14 -17 -25 -37z m26 -349 c-3 -3 -12 -4 -19 -1 -8 3 -5 6 6 6 11 1 17 -2 13 -5z"/><default:path d="M3526 2840 c3 -14 6 -35 6 -47 0 -13 4 -20 9 -17 9 5 13 -15 10 -47 -1 -9 3 -35 8 -59 13 -59 -18 -156 -70 -216 -51 -59 -50 -68 2 -19 23 22 50 60 61 85 21 48 39 208 21 197 -5 -3 -8 5 -6 21 2 15 -7 49 -22 77 -14 28 -22 39 -19 25z"/><default:path d="M3773 2825 c0 -7 6 -11 14 -8 7 3 13 6 13 8 0 2 -6 5 -13 8 -8 3 -14 -1 -14 -8z"/><default:path d="M1600 2816 c0 -2 8 -10 18 -17 15 -13 16 -12 3 4 -13 16 -21 21 -21 13z"/><default:path d="M1603 2775 c0 -8 4 -12 9 -9 5 3 6 10 3 15 -9 13 -12 11 -12 -6z"/><default:path d="M1745 2760 c-93 -46 -118 -64 -141 -98 -12 -17 -25 -28 -28 -24 -4 3 -4 -1 0 -11 3 -10 1 -17 -5 -17 -7 0 -11 -24 -11 -65 0 -71 17 -117 65 -173 15 -18 23 -37 19 -43 -4 -8 -3 -9 5 -5 16 10 43 -13 37 -31 -3 -8 -1 -11 4 -8 6 3 36 -13 67 -37 32 -24 70 -50 85 -57 15 -8 25 -18 21 -24 -3 -5 0 -7 8 -5 8 3 26 -4 42 -14 15 -11 33 -18 39 -16 8 3 2 11 -12 20 -14 8 -61 37 -104 63 -93 57 -210 163 -237 216 -64 126 -8 241 156 324 39 19 66 35 60 35 -5 0 -37 -14 -70 -30z"/><default:path d="M4675 2760 c3 -5 11 -10 16 -10 6 0 7 5 4 10 -3 6 -11 10 -16 10 -6 0 -7 -4 -4 -10z"/><default:path d="M4570 2740 c6 -11 13 -20 16 -20 2 0 0 9 -6 20 -6 11 -13 20 -16 20 -2 0 0 -9 6 -20z"/><default:path d="M3485 2741 c-3 -5 -2 -12 3 -15 5 -3 9 1 9 9 0 17 -3 19 -12 6z"/><default:path d="M4519 2733 c-13 -16 -12 -17 4 -4 9 7 17 15 17 17 0 8 -8 3 -21 -13z"/><default:path d="M2492 2710 c0 -14 2 -19 5 -12 2 6 2 18 0 25 -3 6 -5 1 -5 -13z"/><default:path d="M4636 2715 c3 -11 7 -28 8 -38 1 -9 9 -23 16 -30 12 -10 12 -9 2 4 -6 9 -9 18 -6 22 3 3 -2 18 -11 34 -9 15 -13 19 -9 8z"/><default:path d="M1411 2688 c0 -28 2 -30 9 -13 12 28 12 45 0 45 -5 0 -10 -15 -9 -32z"/><default:path d="M4220 2695 c0 -3 24 -20 53 -39 100 -64 157 -146 157 -225 0 -55 -13 -84 -62 -137 -53 -58 -141 -115 -286 -188 -117 -59 -161 -92 -67 -51 30 14 57 25 60 25 19 3 65 23 65 30 0 4 12 13 28 19 32 13 64 32 73 45 4 5 11 6 16 3 5 -3 15 -1 23 5 12 8 11 9 -5 4 -17 -5 -16 -3 5 13 13 11 29 17 35 14 5 -4 7 -3 3 2 -10 10 61 57 74 49 6 -4 8 -2 5 3 -4 6 1 25 9 43 13 25 19 29 26 19 6 -10 7 -7 3 9 -4 13 -2 29 5 37 14 17 7 114 -11 146 -8 13 -21 30 -29 37 -8 7 -10 11 -5 8 6 -2 17 0 25 6 13 8 12 9 -1 5 -10 -3 -35 12 -65 39 -27 24 -55 44 -62 44 -8 0 -10 5 -6 13 4 6 4 9 -1 5 -4 -4 -17 -1 -29 7 -21 15 -36 19 -36 10z"/><default:path d="M3451 2679 c-1 -9 -8 -22 -16 -29 -9 -7 -13 -15 -10 -18 2 -3 -3 -10 -12 -17 -11 -8 -12 -14 -5 -19 13 -8 56 69 48 87 -2 7 -5 5 -5 -4z"/><default:path d="M2510 2642 c0 -7 7 -20 15 -28 19 -20 20 -4 0 22 -9 12 -14 14 -15 6z"/><default:path d="M1409 2598 c-2 -26 0 -44 5 -40 5 3 6 -3 3 -12 -8 -19 10 -94 26 -111 6 -6 6 -1 2 15 -5 14 -13 63 -20 110 -11 79 -12 82 -16 38z"/><default:path d="M4652 2600 c0 -19 2 -27 5 -17 2 9 2 25 0 35 -3 9 -5 1 -5 -18z"/><default:path d="M3383 2578 c-4 -7 -13 -22 -19 -33 -6 -11 -16 -19 -22 -18 -6 2 -9 -4 -6 -12 5 -11 2 -13 -10 -9 -10 4 -16 2 -14 -4 4 -14 -62 -63 -75 -55 -6 3 -7 1 -4 -4 4 -6 0 -16 -8 -23 -8 -7 -15 -9 -15 -4 0 5 -4 5 -8 -1 -9 -13 -139 -78 -172 -86 l-25 -7 25 -1 c14 0 41 7 60 18 19 10 60 32 90 48 113 60 222 156 202 178 -4 5 1 5 10 2 12 -4 15 -2 11 9 -6 17 -10 18 -20 2z"/><default:path d="M2570 2571 c-8 -6 -18 -7 -22 -5 -4 3 -5 -2 -2 -11 6 -14 8 -14 25 1 27 24 26 31 -1 15z"/><default:path d="M2485 2560 c3 -5 8 -10 11 -10 2 0 4 5 4 10 0 6 -5 10 -11 10 -5 0 -7 -4 -4 -10z"/><default:path d="M2145 2549 c-4 -6 -5 -12 -2 -15 2 -3 7 2 10 11 7 17 1 20 -8 4z"/><default:path d="M4653 2520 c0 -25 2 -35 4 -22 2 12 2 32 0 45 -2 12 -4 2 -4 -23z"/><default:path d="M2470 2531 c0 -25 6 -27 13 -6 4 8 2 17 -3 20 -6 4 -10 -3 -10 -14z"/><default:path d="M2054 2504 c-17 -66 40 -171 149 -277 125 -121 296 -195 558 -244 69 -13 147 -17 294 -18 186 0 207 2 295 27 127 35 229 83 341 159 127 88 183 140 213 201 51 101 17 121 -57 35 -90 -106 -218 -147 -455 -147 -153 0 -287 19 -361 51 -45 19 -49 19 -86 3 -58 -25 -262 -30 -392 -10 -203 31 -349 99 -419 196 -40 56 -70 65 -80 24z m56 -24 c0 -100 126 -192 330 -240 131 -31 355 -39 467 -16 72 14 85 14 122 1 96 -33 215 -49 371 -49 217 0 317 26 401 102 44 39 60 63 68 106 5 21 13 30 28 31 19 1 20 -1 12 -24 -6 -14 -15 -31 -21 -38 -6 -7 -7 -13 -2 -13 15 0 -61 -73 -133 -126 -40 -30 -75 -54 -78 -54 -4 0 -13 -7 -21 -15 -19 -18 -48 -20 -38 -2 4 7 3 9 -2 4 -5 -5 -9 -13 -9 -17 0 -13 -67 -60 -76 -54 -5 3 -9 1 -9 -4 0 -9 -39 -25 -65 -27 -5 0 -14 -3 -20 -7 -9 -5 -100 -32 -150 -43 -11 -3 -60 -7 -110 -10 -49 -3 -109 -8 -133 -11 -42 -5 -107 2 -287 33 -115 19 -127 21 -143 22 -7 1 -10 5 -7 11 3 6 -1 7 -10 4 -19 -8 -67 4 -61 15 3 4 -8 8 -24 8 -16 0 -52 14 -81 31 -28 18 -55 29 -61 26 -7 -5 -8 -2 -3 6 6 10 4 12 -9 7 -10 -4 -15 -3 -11 3 3 6 -3 10 -15 10 -12 0 -18 4 -15 10 3 6 -1 7 -9 4 -9 -4 -18 1 -22 10 -3 9 -12 16 -18 16 -7 0 -27 16 -46 35 -30 30 -32 36 -19 52 13 17 13 17 -4 4 -25 -20 -46 0 -27 26 12 15 12 16 0 5 -12 -10 -18 -7 -37 14 -13 15 -23 32 -23 37 0 6 -8 19 -17 30 -13 15 -14 18 -3 12 11 -6 10 -3 -2 11 -24 28 -22 94 4 94 13 0 18 -8 18 -30z m159 -142 c10 -28 9 -30 -13 -22 -17 7 -23 44 -6 44 6 0 14 -10 19 -22z m46 -18 c3 -5 1 -10 -4 -10 -6 0 -11 5 -11 10 0 6 2 10 4 10 3 0 8 -4 11 -10z m100 -35 c92 -26 88 -36 -4 -12 -52 14 -81 27 -81 36 0 10 4 11 13 3 6 -5 39 -18 72 -27z m560 -15 c3 -5 1 -10 -4 -10 -6 0 -11 5 -11 10 0 6 2 10 4 10 3 0 8 -4 11 -10z m112 -23 c14 5 88 -25 80 -33 -3 -3 -21 2 -40 11 -19 9 -38 15 -43 13 -13 -3 -83 22 -89 33 -3 5 13 0 37 -10 24 -10 48 -16 55 -14z m636 9 c-38 -26 -85 -45 -99 -39 -7 3 -14 1 -14 -3 0 -13 -198 -21 -349 -14 -40 2 -58 6 -49 11 17 10 103 5 132 -7 11 -4 17 -4 14 2 -4 5 37 9 98 9 57 0 104 3 104 8 0 4 20 6 45 3 25 -2 43 0 40 4 -4 7 16 16 55 25 8 2 16 9 18 15 2 5 8 7 14 4 5 -3 2 -11 -9 -18z m-773 4 c0 -5 -5 -10 -11 -10 -5 0 -7 5 -4 10 3 6 8 10 11 10 2 0 4 -4 4 -10z m-297 -9 c25 -1 36 -5 31 -12 -4 -7 -20 -8 -43 -3 -20 4 -47 6 -59 5 -13 0 -31 3 -40 8 -12 7 -3 9 28 6 25 -1 62 -3 83 -4z m232 -1 c3 -5 1 -10 -4 -10 -6 0 -11 5 -11 10 0 6 2 10 4 10 3 0 8 -4 11 -10z m-158 -6 c-3 -3 -12 -4 -19 -1 -8 3 -5 6 6 6 11 1 17 -2 13 -5z m101 -5 c-11 -6 -24 -6 -34 -1 -12 7 -8 9 18 10 26 1 30 -1 16 -9z"/><default:path d="M2207 2263 c-3 -5 8 -8 23 -8 15 0 26 3 23 8 -2 4 -13 7 -23 7 -10 0 -21 -3 -23 -7z"/><default:path d="M2274 2262 c10 -17 -28 -34 -44 -19 -12 10 -12 9 -1 -5 10 -13 18 -15 31 -8 26 14 33 27 19 36 -8 4 -9 3 -5 -4z"/><default:path d="M2255 2210 c-3 -5 -2 -10 4 -10 5 0 13 5 16 10 3 6 2 10 -4 10 -5 0 -13 -4 -16 -10z"/><default:path d="M2508 2193 c7 -3 16 -2 19 1 4 3 -2 6 -13 5 -11 0 -14 -3 -6 -6z"/><default:path d="M2548 2183 c6 -2 18 -2 25 0 6 3 1 5 -13 5 -14 0 -19 -2 -12 -5z"/><default:path d="M2615 2170 c32 -12 376 -30 645 -34 l165 -3 -165 7 c-91 4 -172 10 -180 13 -8 4 -105 9 -215 11 -110 3 -218 7 -240 10 -37 6 -38 5 -10 -4z"/><default:path d="M3435 2140 c-3 -6 1 -7 9 -4 18 7 21 14 7 14 -6 0 -13 -4 -16 -10z"/><default:path d="M2540 2524 c0 -6 -12 -15 -27 -21 -24 -9 -25 -11 -7 -12 23 -1 52 25 40 36 -3 3 -6 2 -6 -3z"/><default:path d="M2590 2519 c0 -14 28 -41 33 -32 2 5 -4 16 -15 26 -10 9 -18 12 -18 6z"/><default:path d="M2635 2470 c3 -5 8 -10 11 -10 2 0 4 5 4 10 0 6 -5 10 -11 10 -5 0 -7 -4 -4 -10z"/><default:path d="M3444 2469 c-3 -6 -2 -15 3 -20 5 -5 9 -1 9 11 0 23 -2 24 -12 9z"/><default:path d="M3874 2468 c-4 -7 -4 -10 1 -6 4 4 15 2 24 -5 14 -11 14 -10 2 6 -16 20 -18 21 -27 5z"/><default:path d="M4640 2453 c0 -10 -3 -29 -5 -43 -3 -16 0 -12 9 10 18 43 19 50 6 50 -5 0 -10 -8 -10 -17z"/><default:path d="M2683 2437 c15 -13 44 -29 65 -36 20 -7 67 -26 104 -42 70 -31 88 -35 88 -20 0 5 -16 12 -35 15 -19 4 -47 13 -62 21 -15 8 -34 15 -41 15 -7 0 -11 4 -8 8 3 5 -5 8 -17 8 -12 -1 -21 4 -20 11 2 7 -4 10 -12 7 -8 -3 -28 4 -44 15 -39 28 -53 26 -18 -2z"/><default:path d="M2458 2443 c7 -3 16 -2 19 1 4 3 -2 6 -13 5 -11 0 -14 -3 -6 -6z"/><default:path d="M2508 2443 c7 -3 16 -2 19 1 4 3 -2 6 -13 5 -11 0 -14 -3 -6 -6z"/><default:path d="M2369 2414 c41 -19 102 -30 82 -16 -7 5 -10 15 -7 21 5 8 -11 11 -51 10 l-58 -1 34 -14z"/><default:path d="M3266 2422 c-3 -5 1 -9 9 -9 8 0 12 4 9 9 -3 4 -7 8 -9 8 -2 0 -6 -4 -9 -8z"/><default:path d="M1450 2411 c0 -6 4 -13 10 -16 6 -3 7 1 4 9 -7 18 -14 21 -14 7z"/><default:path d="M3530 2403 c-25 -3 -49 -8 -54 -13 -5 -5 0 -7 13 -3 12 3 21 1 21 -6 0 -9 6 -9 23 -1 21 11 21 10 3 -4 -11 -9 -29 -17 -40 -17 -73 -5 -105 -19 -43 -19 40 0 121 27 158 54 l23 16 -29 -2 c-17 -1 -50 -3 -75 -5z"/><default:path d="M1474 2368 c3 -7 9 -21 12 -30 4 -10 11 -18 16 -18 5 0 6 -5 2 -12 -5 -7 -3 -8 6 -3 10 6 12 4 6 -11 -4 -10 -4 -16 -1 -12 11 10 87 -80 79 -93 -4 -7 -3 -9 4 -5 6 3 17 -3 25 -14 7 -11 17 -17 20 -14 4 4 -17 32 -45 63 -28 31 -67 80 -86 109 -32 48 -51 68 -38 40z"/><default:path d="M2410 2370 c-25 -4 -38 -8 -30 -10 23 -4 61 1 84 10 24 10 10 10 -54 0z"/><default:path d="M4606 2358 c-9 -12 -16 -28 -16 -35 0 -7 -4 -13 -9 -13 -5 0 -12 -8 -15 -18 -3 -9 -37 -49 -76 -87 -38 -39 -70 -74 -70 -80 0 -5 5 -4 11 2 6 6 19 9 28 6 14 -4 14 -3 1 7 -12 9 -13 13 -1 17 15 6 101 94 101 104 0 14 40 50 49 45 5 -4 13 -2 16 4 4 6 3 10 -2 9 -21 -4 -22 3 -8 31 18 35 13 40 -9 8z"/><default:path d="M4740 2315 c0 -8 2 -15 4 -15 2 0 6 7 10 15 3 8 1 15 -4 15 -6 0 -10 -7 -10 -15z"/><default:path d="M3418 2313 c7 -3 9 -10 6 -16 -4 -7 -4 -9 0 -6 4 4 28 2 54 -5 29 -7 74 -9 117 -6 l70 7 -60 2 c-33 1 -78 6 -100 10 -53 12 -103 20 -87 14z"/><default:path d="M1910 2216 c44 -45 70 -64 81 -61 12 4 20 -3 27 -22 6 -17 11 -21 11 -11 1 20 31 14 31 -6 0 -7 11 -19 25 -26 20 -11 28 -11 47 2 32 20 78 22 78 3 0 -8 9 -15 21 -15 11 0 18 -4 15 -9 -4 -5 4 -7 16 -3 14 3 19 2 14 -6 -4 -7 -1 -12 9 -12 9 0 13 -4 10 -10 -4 -6 1 -7 11 -3 11 4 15 2 11 -4 -4 -6 3 -10 16 -10 42 -1 48 -3 41 -15 -5 -8 -2 -9 9 -5 10 4 36 -4 61 -18 24 -13 46 -22 48 -20 9 10 68 -17 61 -28 -3 -5 -1 -7 5 -3 6 3 22 2 36 -4 15 -5 37 -12 49 -14 12 -2 36 -10 52 -17 30 -13 61 -18 125 -19 27 0 32 -3 20 -11 -11 -8 -8 -9 13 -4 16 3 26 2 24 -2 -10 -16 325 -1 396 18 21 6 50 12 65 14 15 2 63 16 107 30 44 15 90 27 102 27 13 0 20 5 16 11 -4 6 2 8 16 4 13 -3 20 -3 17 0 -8 8 66 43 77 36 6 -3 7 -2 4 4 -8 13 89 47 105 37 9 -6 9 -3 -1 9 -12 15 -12 17 4 11 13 -5 16 -4 11 4 -5 8 -2 10 8 6 18 -7 125 73 156 116 12 17 26 27 32 24 7 -5 8 -2 4 5 -9 14 -9 14 -101 -60 -67 -54 -265 -155 -380 -193 -211 -71 -339 -90 -537 -83 -171 6 -296 32 -483 102 -96 36 -310 137 -330 156 -16 15 -23 10 -17 -13 4 -16 2 -19 -8 -13 -8 5 -11 4 -7 -2 10 -16 -22 -24 -45 -12 -11 6 -17 13 -14 16 3 3 12 1 19 -5 8 -7 17 -9 21 -5 9 9 -123 75 -135 67 -5 -3 -8 -1 -7 4 2 5 -19 27 -47 49 -80 63 -84 60 -15 -11z"/><default:path d="M2001 2253 c61 -72 114 -123 125 -123 24 0 7 30 -32 58 -21 16 -52 44 -68 61 -37 38 -59 42 -25 4z"/><default:path d="M3903 2255 c0 -8 4 -12 9 -9 5 3 6 10 3 15 -9 13 -12 11 -12 -6z"/><default:path d="M4085 2220 c-3 -6 1 -7 9 -4 18 7 21 14 7 14 -6 0 -13 -4 -16 -10z"/><default:path d="M4050 2154 c-36 -19 -108 -52 -160 -74 -52 -22 -85 -40 -72 -40 12 0 37 6 55 13 18 8 38 12 46 9 8 -2 11 0 8 5 -4 6 4 9 20 7 27 -3 85 31 151 88 42 36 32 34 -48 -8z"/><default:path d="M2192 2166 c7 -8 15 -12 17 -11 5 6 -10 25 -20 25 -5 0 -4 -6 3 -14z"/><default:path d="M1670 2142 c11 -23 57 -58 66 -50 2 3 -8 13 -23 23 -15 10 -34 26 -41 34 -11 14 -11 13 -2 -7z"/><default:path d="M4375 2097 c-31 -28 -41 -37 -87 -73 -15 -12 -25 -24 -22 -27 3 -3 1 -8 -5 -12 -6 -3 -11 -1 -11 5 0 9 -55 -23 -70 -41 -3 -3 -20 -14 -38 -23 -19 -10 -31 -20 -28 -24 4 -3 12 0 18 6 16 16 31 15 22 0 -4 -7 -4 -10 0 -6 4 3 8 10 8 15 0 4 19 19 42 33 39 23 54 25 48 7 -1 -5 2 -6 8 -2 6 3 8 10 6 14 -7 10 65 85 103 107 26 15 48 43 39 48 -2 1 -16 -11 -33 -27z"/><default:path d="M2005 2090 c-8 -13 5 -13 25 0 13 8 13 10 -2 10 -9 0 -20 -4 -23 -10z"/><default:path d="M1750 2082 c0 -6 -3 -19 -6 -29 -5 -17 -5 -17 6 0 11 18 13 18 27 -2 8 -12 21 -21 29 -21 8 0 14 -4 14 -9 0 -5 14 -14 30 -21 17 -7 33 -17 37 -23 3 -6 1 -7 -5 -3 -7 4 -12 2 -12 -3 0 -6 6 -11 13 -11 7 0 26 -13 42 -30 40 -42 54 -38 16 5 -17 20 -31 40 -31 44 0 5 -10 11 -22 15 -24 5 -45 20 -104 70 -19 15 -34 23 -34 18z"/><default:path d="M1935 2080 c-3 -6 1 -7 9 -4 18 7 21 14 7 14 -6 0 -13 -4 -16 -10z"/><default:path d="M2050 2055 c13 -14 33 -25 44 -25 16 1 13 4 -11 15 -18 8 -33 19 -33 25 0 5 -5 10 -12 10 -6 0 -1 -11 12 -25z"/><default:path d="M2140 2050 c-12 -8 -10 -10 8 -10 13 0 20 4 17 10 -7 12 -6 12 -25 0z"/><default:path d="M1990 2040 c0 -6 7 -10 15 -10 8 0 15 2 15 4 0 2 -7 6 -15 10 -8 3 -15 1 -15 -4z"/><default:path d="M1955 2029 c-4 -6 -5 -12 -2 -15 2 -3 7 2 10 11 7 17 1 20 -8 4z"/><default:path d="M3990 2030 c-9 -6 -10 -10 -3 -10 6 0 15 5 18 10 8 12 4 12 -15 0z"/><default:path d="M4370 1956 c0 -2 7 -7 16 -10 8 -3 12 -2 9 4 -6 10 -25 14 -25 6z"/><default:path d="M1988 1923 c19 -15 20 -21 10 -33 -11 -12 -11 -12 3 -2 13 9 29 5 87 -25 39 -21 68 -41 65 -47 -4 -5 -1 -6 6 -1 12 7 31 1 84 -26 9 -5 17 -6 17 -2 0 5 -28 21 -63 36 -34 16 -73 35 -87 43 -62 36 -143 73 -122 57z"/><default:path d="M3983 1846 c-106 -54 -137 -74 -93 -61 14 4 28 12 32 18 4 7 12 6 22 -3 14 -11 16 -11 11 2 -7 17 20 32 37 21 6 -3 8 -1 4 5 -3 6 8 15 28 22 19 6 40 18 47 26 10 12 14 12 20 2 7 -10 9 -9 9 5 0 22 1 23 -117 -37z"/><default:path d="M2270 1780 c0 -6 7 -10 15 -10 8 0 15 2 15 4 0 2 -7 6 -15 10 -8 3 -15 1 -15 -4z"/><default:path d="M2317 1764 c6 -15 23 -19 23 -5 0 5 -7 11 -14 14 -10 4 -13 1 -9 -9z"/><default:path d="M3820 1770 c-21 -7 -21 -8 -5 -9 11 0 27 4 35 9 18 11 5 11 -30 0z"/><default:path d="M1460 1749 c-13 -9 -13 -10 1 -6 9 3 23 0 30 -6 11 -10 11 -9 0 6 -7 9 -14 17 -15 17 0 0 -8 -5 -16 -11z"/><default:path d="M2354 1749 c-4 -8 -3 -10 5 -5 6 4 17 3 24 -2 18 -14 137 -52 161 -52 12 1 -17 14 -64 29 -47 16 -92 32 -101 35 -10 4 -20 2 -25 -5z"/><default:path d="M3780 1750 c8 -5 20 -10 25 -10 6 0 3 5 -5 10 -8 5 -19 10 -25 10 -5 0 -3 -5 5 -10z"/><default:path d="M3745 1740 c-4 -6 3 -10 14 -10 25 0 27 6 6 13 -8 4 -17 2 -20 -3z"/><default:path d="M3640 1709 l-45 -20 40 7 c22 3 42 9 45 14 3 4 16 10 30 13 l25 4 -25 1 c-14 0 -45 -9 -70 -19z"/><default:path d="M2576 1681 c5 -5 34 -12 64 -15 l55 -6 -50 15 c-59 17 -83 19 -69 6z"/><default:path d="M3508 1677 c-56 -12 -62 -22 -14 -22 19 0 32 2 29 5 -3 3 12 10 34 17 46 14 16 14 -49 0z"/><default:path d="M4396 1668 c3 -5 10 -6 15 -3 13 9 11 12 -6 12 -8 0 -12 -4 -9 -9z"/><default:path d="M2716 1651 c25 -11 285 -43 292 -36 3 3 1 5 -4 5 -14 0 -245 29 -279 35 -24 4 -26 3 -9 -4z"/><default:path d="M3410 1656 c0 -2 9 -6 20 -9 11 -3 18 -1 14 4 -5 9 -34 13 -34 5z"/><default:path d="M3377 1639 c7 -7 15 -10 18 -7 3 3 -2 9 -12 12 -14 6 -15 5 -6 -5z"/><default:path d="M3210 1627 c-41 -6 -68 -12 -60 -14 8 -2 60 3 115 11 55 7 82 14 60 13 -22 0 -74 -4 -115 -10z"/><default:path d="M3048 1613 c18 -2 45 -2 60 0 15 2 0 4 -33 4 -33 0 -45 -2 -27 -4z"/><default:path d="M3650 1616 c0 -2 7 -7 16 -10 8 -3 12 -2 9 4 -6 10 -25 14 -25 6z"/><default:path d="M2109 1398 c-13 -24 -22 -49 -20 -57 1 -7 0 -20 -4 -29 -5 -13 -8 -12 -21 4 -15 18 -15 18 -10 1 3 -10 6 -25 6 -33 0 -9 5 -12 12 -8 6 4 8 3 5 -4 -8 -12 2 -42 14 -42 4 0 8 19 7 43 -1 49 28 157 42 157 9 0 17 -40 28 -160 7 -71 8 -75 33 -78 21 -2 36 7 73 50 25 29 46 56 46 60 0 17 -19 7 -35 -19 -24 -37 -63 -73 -79 -73 -17 0 -25 31 -27 95 -1 59 -19 127 -36 132 -7 3 -22 -15 -34 -39z"/><default:path d="M2660 1348 c0 -18 56 -129 70 -138 4 -3 13 -16 19 -28 16 -31 42 -61 119 -141 66 -70 74 -71 42 -7 -11 23 -24 66 -29 96 -5 30 -10 44 -11 30 -1 -14 -3 -33 -5 -42 -2 -10 2 -18 8 -18 5 0 8 -3 4 -6 -3 -3 -2 -17 3 -29 6 -16 -9 -6 -46 31 -47 48 -72 87 -44 69 6 -3 7 1 3 10 -4 13 -8 14 -14 4 -6 -10 -10 -9 -15 6 -4 11 -15 29 -24 40 -10 11 -32 47 -49 80 -17 33 -31 52 -31 43z"/><default:path d="M2409 1318 c-7 -17 -12 -40 -12 -49 2 -16 0 -17 -18 -1 -10 9 -19 22 -19 29 0 6 -4 14 -9 17 -16 11 1 -38 26 -71 32 -44 41 -41 36 11 -3 24 0 53 7 65 6 13 10 25 7 27 -2 3 -10 -10 -18 -28z"/><default:path d="M2021 1322 c-13 -25 -14 -42 -2 -42 8 0 23 52 16 58 -2 2 -8 -5 -14 -16z"/><default:path d="M2629 1307 c-16 -37 -14 -70 3 -46 7 10 8 6 5 -13 -2 -15 0 -25 4 -22 10 6 12 -10 2 -19 -10 -11 -33 13 -33 34 0 11 -4 19 -10 19 -5 0 -10 9 -10 20 0 11 -4 20 -9 20 -14 0 5 -58 33 -99 13 -20 43 -56 65 -81 31 -35 42 -42 49 -31 7 9 12 10 16 2 4 -6 2 -11 -3 -11 -19 0 -11 -15 14 -27 33 -15 31 -8 -15 57 -76 106 -95 143 -95 188 0 23 0 42 0 42 -1 0 -8 -15 -16 -33z m74 -164 c17 -18 27 -36 23 -40 -4 -4 -12 -1 -17 8 -4 9 -22 31 -39 49 -16 17 -27 37 -24 42 4 6 11 3 17 -8 5 -11 23 -34 40 -51z"/><default:path d="M2430 1312 c0 -16 77 -127 105 -152 24 -22 27 -22 20 -5 -15 36 -18 105 -5 120 11 13 10 14 -3 9 -8 -3 -18 -23 -22 -45 -4 -21 -10 -39 -13 -39 -4 1 -20 28 -37 60 -26 54 -45 75 -45 52z"/><default:path d="M1938 1253 c6 -2 18 -2 25 0 6 3 1 5 -13 5 -14 0 -19 -2 -12 -5z"/><default:path d="M1993 1248 c3 -9 1 -19 -6 -22 -9 -3 -9 -5 0 -5 18 -1 23 13 11 29 -8 12 -9 12 -5 -2z"/><default:path d="M2906 1151 c15 -25 48 -76 75 -113 26 -37 55 -81 64 -98 8 -16 18 -30 21 -30 6 0 -6 232 -12 239 -4 5 -6 -97 -1 -102 1 -2 -4 -11 -11 -19 -9 -12 -10 -17 -1 -20 6 -2 10 -12 8 -22 -3 -12 -19 5 -56 58 -29 42 -53 80 -53 86 0 5 -4 10 -10 10 -5 0 -7 7 -4 15 4 8 -1 17 -10 21 -9 3 -14 9 -11 13 2 4 -2 8 -10 8 -11 0 -9 -11 11 -46z"/><default:path d="M3306 1178 c4 -18 2 -28 -6 -28 -6 0 -9 -4 -5 -10 3 -5 -5 -26 -18 -47 -13 -21 -27 -56 -31 -78 l-8 -40 -13 30 c-7 17 -10 33 -8 38 2 4 -1 7 -7 7 -7 0 -10 -6 -8 -12 3 -7 13 -43 23 -80 10 -37 21 -65 26 -62 4 2 7 28 6 57 -2 41 6 71 36 140 21 49 36 94 33 100 -3 8 -5 6 -5 -3 -1 -13 -2 -13 -11 0 -8 11 -9 8 -4 -12z"/><default:path d="M3352 1152 c7 -35 6 -70 -5 -128 -8 -43 -13 -81 -11 -83 8 -8 114 152 114 171 0 21 -19 4 -35 -32 -10 -22 -21 -37 -26 -35 -4 3 -11 0 -15 -6 -4 -8 -3 -9 4 -5 17 10 15 -9 -2 -23 -11 -9 -13 -5 -12 23 0 19 5 32 9 29 8 -5 5 22 -9 99 -3 15 -9 30 -13 33 -5 2 -4 -17 1 -43z"/><default:path d="M3109 1052 c56 -156 57 -157 66 -78 8 76 1 100 -10 36 l-7 -42 -25 58 c-13 33 -29 73 -35 89 -6 17 -15 35 -20 40 -5 6 9 -41 31 -103z"/><default:path d="M3686 1107 c3 -10 9 -15 12 -12 3 3 0 11 -7 18 -10 9 -11 8 -5 -6z"/><default:path d="M3733 925 c0 -8 4 -12 9 -9 5 3 6 10 3 15 -9 13 -12 11 -12 -6z"/><default:path d="M2506 858 c3 -5 10 -6 15 -3 13 9 11 12 -6 12 -8 0 -12 -4 -9 -9z"/><default:path d="M3080 790 c0 -27 5 -50 10 -50 6 0 10 23 10 50 0 28 -4 50 -10 50 -5 0 -10 -22 -10 -50z"/><default:path d="M3009 5173 c-13 -15 -12 -15 9 -4 23 12 28 21 13 21 -5 0 -15 -7 -22 -17z"/><default:path d="M2943 5115 c-3 -9 -3 -18 -1 -21 3 -3 8 4 11 16 6 23 -1 27 -10 5z"/><default:path d="M1785 4951 c-3 -5 -2 -12 3 -15 5 -3 9 1 9 9 0 17 -3 19 -12 6z"/><default:path d="M4596 4608 c3 -5 10 -6 15 -3 13 9 11 12 -6 12 -8 0 -12 -4 -9 -9z"/><default:path d="M1043 4305 c0 -8 4 -12 9 -9 5 3 6 10 3 15 -9 13 -12 11 -12 -6z"/><default:path d="M1925 1151 c-3 -5 -2 -12 3 -15 5 -3 9 1 9 9 0 17 -3 19 -12 6z"/><default:path d="M2009 1083 c-13 -16 -12 -17 4 -4 16 13 21 21 13 21 -2 0 -10 -8 -17 -17z"/><default:path d="M3800 746 c0 -2 7 -7 16 -10 8 -3 12 -2 9 4 -6 10 -25 14 -25 6z"/><default:path d="M3326 658 c3 -5 10 -6 15 -3 13 9 11 12 -6 12 -8 0 -12 -4 -9 -9z"/></default:g></svg>