<svg xmlns="http://www.w3.org/2000/svg" viewBox="0 0 1254 1254">
  <rect width="1254" height="1254" rx="250" fill="#1a1a2e"/>
  <path fill="#4ECB71" d="M3805 9663c-309-21-664-133-938-296-183-109-358-269-464-424-61-89-133-220-114-209 5 4 50 37 100 74 307 231 679 378 1070 423 155 17 457 7 596-21 340-68 611-213 782-420 68-82 142-227 150-297 5-46 3-54-20-77-46-46-80-38-300 74-279 141-456 194-693 207-447 24-1010-196-1469-576-365-303-616-692-702-1093-14-64-18-128-18-278 0-213 10-280 67-460 31-97 132-320 146-320 4 0 20 34 35 76 60 158 216 344 386 458 209 140 396 213 826 325 395 102 648 205 928 375 457 278 834 708 987 1126 31 88 55 198 64 300 13 144-35 344-117 490-49 87-191 236-282 297-269 180-647 271-1020 246z"/>
  <path fill="#4ECB71" d="M8435 9660c-647-66-1091-416-1134-895-18-208 36-441 151-645 196-348 513-667 900-904 279-171 540-276 973-391 282-76 397-115 545-186 336-161 552-375 635-629l18-55 53 109c70 146 120 298 145 448 18 105 20 149 16 298-8 242-49 411-152 625-259 539-822 993-1473 1191-357 108-696 100-1027-23-38-14-155-68-258-120-201-99-240-110-277-73-28 28-34 63-19 122 25 108 77 196 173 296 196 206 503 347 864 398 125 17 391 20 518 4 386-46 767-198 1069-426 48-36 89-63 92-61 9 10-89 182-154 267-51 67-190 206-257 256-251 190-591 327-935 379-128 19-352 26-466 15z"/>
  <path fill="#4ECB71" d="M6072 7908c-174-22-367-87-500-169-100-61-224-181-274-264-125-206-142-459-46-675 38-85 142-215 226-281 142-113 334-185 400-150 52 28 48 144-9 233-41 64-86 101-172 144-115 58-157 107-157 186 0 162 236 202 360 62 71-81 96-159 115-351 10-109 19-155 38-196 81-177 281-207 394-59 42 55 60 119 73 255 18 195 55 294 138 369 142 127 353 68 339-95-6-68-44-110-155-171-51-28-110-68-132-89-87-86-119-219-64-274 23-23 31-25 87-21 126 10 313 112 425 232 69 74 120 160 159 267 25 68 27 86 27 219 0 130-3 153-27 225-90 270-339 482-667 564-195 49-392 63-578 39z"/>
  <path fill="#4ECB71" d="M5615 4691c-29-49 216-148 438-177 145-19 369-14 492 11 183 37 357 111 363 153 4 28-12 28-161 2-293-51-673-53-942-4-132 24-181 28-190 15z"/>
</svg>
