<svg version="1.0" xmlns="http://www.w3.org/2000/svg"
 width="1254" height="1254" viewBox="0 0 1254 1254">
<g transform="translate(0,1254) scale(0.1,-0.1)"
fill="#4ECB71" stroke="none">
<path d="M3805 9663 c-309 -21 -664 -133 -938 -296 -183 -109 -358 -269 -464
-424 -61 -89 -133 -220 -114 -209 5 4 50 37 100 74 307 231 679 378 1070 423
155 17 457 7 596 -21 340 -68 611 -213 782 -420 68 -82 142 -227 150 -297 5
-46 3 -54 -20 -77 -46 -46 -80 -38 -300 74 -279 141 -456 194 -693 207 -447
24 -1010 -196 -1469 -576 -365 -303 -616 -692 -702 -1093 -14 -64 -18 -128
-18 -278 0 -213 10 -280 67 -460 31 -97 132 -320 146 -320 4 0 20 34 35 76 60
158 216 344 386 458 209 140 396 213 826 325 395 102 648 205 928 375 457 278
834 708 987 1126 31 88 55 198 64 300 13 144 -35 344 -117 490 -49 87 -191
236 -282 297 -269 180 -647 271 -1020 246z m165 -1285 c53 -37 73 -71 74 -127
1 -78 -55 -139 -135 -148 -86 -9 -159 59 -159 147 0 115 129 190 220 128z
m-548 -135 c-6 -10 -14 -46 -17 -79 -14 -118 38 -246 140 -350 117 -118 270
-166 427 -133 186 39 334 187 378 378 12 51 9 146 -6 185 -6 16 -4 17 15 7 38
-21 87 -77 111 -127 59 -126 12 -276 -133 -419 -143 -141 -309 -203 -516 -192
-178 9 -296 61 -417 181 -118 118 -165 253 -130 376 20 75 63 141 113 175 41
27 50 26 35 -2z"/>
<path d="M8435 9660 c-647 -66 -1091 -416 -1134 -895 -18 -208 36 -441 151
-645 196 -348 513 -667 900 -904 279 -171 540 -276 973 -391 282 -76 397 -115
545 -186 336 -161 552 -375 635 -629 l18 -55 53 109 c70 146 120 298 145 448
18 105 20 149 16 298 -8 242 -49 411 -152 625 -259 539 -822 993 -1473 1191
-357 108 -696 100 -1027 -23 -38 -14 -155 -68 -258 -120 -201 -99 -240 -110
-277 -73 -28 28 -34 63 -19 122 25 108 77 196 173 296 196 206 503 347 864
398 125 17 391 20 518 4 386 -46 767 -198 1069 -426 48 -36 89 -63 92 -61 9
10 -89 182 -154 267 -51 67 -190 206 -257 256 -251 190 -591 327 -935 379
-128 19 -352 26 -466 15z m253 -1282 c35 -21 72 -85 72 -123 0 -11 -9 -39 -20
-62 -63 -140 -280 -91 -280 62 0 113 131 183 228 123z m-540 -177 c-41 -218
136 -463 369 -512 77 -15 195 -7 265 20 204 78 344 318 299 511 -5 24 -8 47
-5 49 10 11 98 -87 120 -134 31 -66 38 -119 25 -191 -17 -93 -56 -161 -140
-245 -126 -127 -256 -179 -446 -179 -120 0 -191 16 -300 69 -312 152 -425 467
-230 639 26 23 50 41 51 39 2 -2 -2 -31 -8 -66z"/>
<path d="M6072 7908 c-174 -22 -367 -87 -500 -169 -100 -61 -224 -181 -274
-264 -125 -206 -142 -459 -46 -675 38 -85 142 -215 226 -281 142 -113 334
-185 400 -150 52 28 48 144 -9 233 -41 64 -86 101 -172 144 -115 58 -157 107
-157 186 0 162 236 202 360 62 71 -81 96 -159 115 -351 10 -109 19 -155 38
-196 81 -177 281 -207 394 -59 42 55 60 119 73 255 18 195 55 294 138 369 142
127 353 68 339 -95 -6 -68 -44 -110 -155 -171 -51 -28 -110 -68 -132 -89 -87
-86 -119 -219 -64 -274 23 -23 31 -25 87 -21 126 10 313 112 425 232 69 74
120 160 159 267 25 68 27 86 27 219 0 130 -3 153 -27 225 -90 270 -339 482
-667 564 -195 49 -392 63 -578 39z"/>
<path d="M4190 6251 c-110 -34 -196 -117 -222 -216 -11 -39 -10 -47 4 -61 15
-16 19 -15 56 14 47 38 82 52 127 52 48 0 77 -16 105 -58 42 -62 230 -243 330
-318 648 -487 1575 -654 2429 -439 188 48 332 101 516 190 315 154 511 305
746 573 39 45 50 52 83 52 43 0 97 -21 142 -55 41 -32 64 -24 64 21 0 79 -70
170 -167 220 -122 61 -313 36 -313 -42 0 -23 42 -64 66 -64 28 0 12 -31 -48
-96 -236 -252 -702 -484 -1161 -578 -273 -56 -331 -61 -667 -61 -276 1 -332 3
-453 23 -481 77 -848 210 -1168 424 -117 78 -299 242 -299 269 0 8 18 22 40
31 36 15 40 20 40 53 0 33 -4 38 -42 55 -45 20 -158 26 -208 11z"/>
<path d="M5615 4691 c-29 -49 216 -148 438 -177 145 -19 369 -14 492 11 183
37 357 111 363 153 4 28 -12 28 -161 2 -293 -51 -673 -53 -942 -4 -132 24
-181 28 -190 15z"/>
<path d="M5890 4346 c0 -20 40 -40 137 -68 104 -30 352 -33 453 -5 80 22 157
59 150 72 -3 6 -37 8 -85 5 -126 -8 -471 -6 -567 3 -77 8 -88 7 -88 -7z"/>
<path d="M3625 4274 c-263 -63 -499 -314 -604 -639 -52 -160 -64 -250 -58
-430 7 -194 35 -314 112 -465 40 -79 45 -73 45 54 0 490 218 1019 567 1376 64
66 79 86 68 93 -19 10 -103 17 -130 11z"/>
<path d="M8813 4270 c-13 -5 -23 -12 -23 -16 0 -3 44 -52 98 -108 194 -204
339 -448 438 -741 72 -210 94 -327 103 -555 l7 -175 41 85 c129 264 147 591
48 885 -27 81 -99 228 -145 296 -93 135 -244 263 -368 309 -64 24 -167 35
-199 20z"/>
<path d="M3989 3986 c-132 -46 -276 -169 -375 -318 -157 -238 -245 -592 -216
-872 17 -159 70 -322 130 -395 l19 -25 6 155 c6 189 31 329 93 520 100 311
272 620 482 864 44 52 58 73 50 83 -17 20 -116 14 -189 -12z"/>
<path d="M8383 3999 c-9 -11 4 -33 64 -104 246 -296 450 -712 523 -1069 21
-102 45 -371 37 -413 -14 -72 58 42 98 155 101 289 53 713 -116 1017 -139 252
-336 412 -519 423 -56 3 -79 1 -87 -9z"/>
<path d="M4404 3702 c-61 -21 -164 -93 -219 -153 -144 -156 -252 -384 -306
-642 -27 -130 -30 -365 -6 -473 27 -123 99 -284 128 -284 5 0 9 50 9 114 0
147 13 236 60 421 79 310 196 571 397 888 44 68 73 123 69 132 -7 20 -68 19
-132 -3z"/>
<path d="M8023 3714 c-21 -9 -15 -26 32 -97 200 -297 348 -618 424 -919 43
-168 60 -289 63 -446 2 -60 6 -101 12 -99 5 2 25 30 43 63 175 315 119 833
-131 1209 -69 102 -193 223 -270 260 -56 27 -144 42 -173 29z"/>
</g>
</svg>
